<svg xmlns="http://www.w3.org/2000/svg" xmlns:xlink="http://www.w3.org/1999/xlink" viewBox="0 0 1415.17 937.07"><defs><style>.cls-1{fill:none;}.cls-2{clip-path:url(#clip-path);}.cls-3{fill:#0c1615;}.cls-4{fill:#1a273c;}.cls-5{fill:#9ea0a4;}.cls-6{fill:#727e8e;}.cls-7{fill:#4a5b74;}.cls-8{fill:#2a3a53;}.cls-9{fill:#c5beaf;}.cls-10{fill:#555540;}.cls-11{fill:#101615;}.cls-12{fill:#565a3f;}.cls-13{fill:#ca6e24;}.cls-14{fill:#c3e4c3;}.cls-15{fill:#f7584a;}.cls-16{fill:#232734;}.cls-17{fill:#bfb9ac;}.cls-18{fill:#c4bdaf;}.cls-19{fill:#1d2635;}.cls-20{fill:#c6bfb0;}.cls-21{fill:#1e2738;}.cls-22{fill:#c8c0b1;}.cls-23{fill:#202737;}.cls-24{fill:#cac1b1;}.cls-25{fill:#cbc2b1;}.cls-26{fill:#cac0af;}.cls-27{fill:#4a5a73;}.cls-28{fill:#4a5a74;}.cls-29{fill:#495a73;}</style><clipPath id="clip-path" transform="translate(374.82 25.81)"><rect class="cls-1" width="510.31" height="911.12" rx="20"/></clipPath></defs><title>Asset 7</title><g id="Layer_2" data-name="Layer 2"><g id="Layer_7" data-name="Layer 7"><g class="cls-2"><polygon class="cls-3" points="1386.87 738.31 1358.57 738.31 1358.57 709.91 1330.26 709.91 1330.26 738.31 1330.26 766.7 1330.26 795.1 1358.57 795.1 1358.57 823.5 1358.57 851.89 1330.26 851.89 1301.96 851.89 1301.96 823.5 1301.96 795.1 1301.96 766.7 1301.96 738.31 1301.96 709.91 1301.96 681.51 1301.96 653.12 1301.96 624.72 1273.66 624.72 1245.35 624.72 1217.05 624.72 1188.75 624.72 1188.75 653.12 1188.75 681.51 1188.75 709.91 1217.05 709.91 1245.35 709.91 1273.66 709.91 1273.66 738.31 1273.66 766.7 1273.66 795.1 1273.66 823.5 1273.66 851.89 1245.35 851.89 1217.05 851.89 1188.75 851.89 1160.44 851.89 1160.44 823.5 1132.14 823.5 1132.14 795.1 1132.14 766.7 1103.84 766.7 1075.53 766.7 1047.23 766.7 1047.23 795.1 1047.23 823.5 1018.92 823.5 1018.92 851.89 990.62 851.89 962.32 851.89 934.01 851.89 905.71 851.89 877.41 851.89 849.1 851.89 820.8 851.89 792.5 851.89 792.5 880.28 764.19 880.28 764.19 851.89 792.5 851.89 792.5 823.5 792.5 795.1 764.19 795.1 764.19 823.5 735.89 823.5 735.89 851.89 735.89 880.28 707.59 880.28 679.28 880.28 679.28 851.89 679.28 823.5 650.98 823.5 650.98 795.1 622.68 795.1 622.68 823.5 622.68 851.89 594.37 851.89 566.07 851.89 537.77 851.89 509.46 851.89 481.16 851.89 452.86 851.89 424.55 851.89 396.25 851.89 396.25 823.5 396.25 795.1 367.94 795.1 367.94 823.5 367.94 851.89 339.64 851.89 311.34 851.89 283.04 851.89 254.73 851.89 226.43 851.89 226.43 823.5 198.12 823.5 169.82 823.5 141.52 823.5 141.52 851.89 113.21 851.89 84.91 851.89 84.91 823.5 84.91 795.1 84.91 766.7 84.91 738.31 84.91 709.91 113.21 709.91 113.21 681.51 113.21 653.12 84.91 653.12 84.91 624.72 84.91 596.32 84.91 567.93 84.91 539.53 84.91 511.13 84.91 482.74 84.91 454.34 84.91 425.94 84.91 397.55 56.61 397.55 28.3 397.55 0 397.55 0 425.94 0 454.34 0 482.74 0 511.13 0 539.53 0 567.93 0 596.32 0 624.72 0 653.12 0 681.51 0 709.91 0 738.31 0 766.7 0 795.1 0 823.5 0 851.89 0 880.28 0 908.68 0 937.08 28.3 937.08 56.61 937.08 84.91 937.08 113.21 937.08 141.52 937.08 169.82 937.08 198.12 937.08 226.43 937.08 254.73 937.08 283.04 937.08 311.34 937.08 339.64 937.08 367.94 937.08 396.25 937.08 424.55 937.08 452.86 937.08 481.16 937.08 509.46 937.08 537.77 937.08 566.07 937.08 594.37 937.08 622.68 937.08 650.98 937.08 679.28 937.08 707.59 937.08 735.89 937.08 764.19 937.08 792.5 937.08 820.8 937.08 849.1 937.08 877.41 937.08 905.71 937.08 934.01 937.08 962.32 937.08 990.62 937.08 1018.92 937.08 1047.23 937.08 1075.53 937.08 1103.84 937.08 1132.14 937.08 1160.44 937.08 1188.75 937.08 1217.05 937.08 1245.35 937.08 1273.66 937.08 1301.96 937.08 1330.26 937.08 1358.57 937.08 1386.87 937.08 1415.17 937.08 1415.17 908.68 1415.17 880.28 1415.17 851.89 1415.17 823.5 1415.17 795.1 1415.17 766.7 1415.17 738.31 1415.17 709.91 1386.87 709.91 1386.87 738.31"/><polygon class="cls-4" points="1386.87 0 1358.57 0 1330.26 0 1301.96 0 1273.66 0 1245.35 0 1217.05 0 1188.75 0 1160.44 0 1132.14 0 1103.84 0 1075.53 0 1047.23 0 1018.92 0 990.62 0 962.32 0 934.01 0 905.71 0 877.41 0 849.1 0 820.8 0 792.5 0 764.19 0 735.89 0 707.59 0 679.28 0 650.98 0 622.68 0 594.37 0 566.07 0 537.77 0 509.46 0 481.16 0 452.86 0 424.55 0 396.25 0 367.94 0 339.64 0 311.34 0 283.04 0 254.73 0 226.43 0 198.12 0 169.82 0 141.52 0 113.21 0 84.91 0 56.61 0 28.3 0 0 0 0 28.4 0 56.8 0 85.19 0 113.59 28.3 113.59 56.61 113.59 84.91 113.59 113.21 113.59 141.52 113.59 169.82 113.59 198.12 113.59 226.43 113.59 254.73 113.59 283.04 113.59 311.34 113.59 339.64 113.59 367.94 113.59 396.25 113.59 424.55 113.59 452.86 113.59 481.16 113.59 509.46 113.59 537.77 113.59 566.07 113.59 594.37 113.59 594.37 85.19 594.37 56.8 622.68 56.8 650.98 56.8 679.28 56.8 707.59 56.8 735.89 56.8 764.19 56.8 792.5 56.8 820.8 56.8 820.8 85.19 820.8 113.59 849.1 113.59 877.41 113.59 905.71 113.59 934.01 113.59 962.32 113.59 990.62 113.59 1018.92 113.59 1047.23 113.59 1075.53 113.59 1103.84 113.59 1132.14 113.59 1160.44 113.59 1188.75 113.59 1217.05 113.59 1245.35 113.59 1273.66 113.59 1301.96 113.59 1330.26 113.59 1358.57 113.59 1386.87 113.59 1415.17 113.59 1415.17 85.19 1415.17 56.8 1415.17 28.4 1415.17 0 1386.87 0"/><polygon class="cls-5" points="1358.57 653.12 1330.26 653.12 1301.96 653.12 1301.96 681.51 1301.96 709.91 1301.96 738.31 1301.96 766.7 1330.26 766.7 1330.26 738.31 1330.26 709.91 1358.57 709.91 1358.57 738.31 1386.87 738.31 1386.87 709.91 1415.17 709.91 1415.17 681.51 1415.17 653.12 1386.87 653.12 1358.57 653.12"/><path class="cls-6" d="M983.75,485.33H361.07v142h283v-28.4h28.3v28.4H813.93v-28.4H927.14v28.4h113.22v-142H983.75Zm-283,113.58v-28.4H729v28.4Z" transform="translate(374.82 25.81)"/><path class="cls-7" d="M983.75,286.56H729V315H700.71v28.4h-28.3v28.4H615.8v28.39H559.2v28.4H361.07v56.79h679.29V286.56H983.75ZM842.23,315v28.4h28.3v28.4h-28.3v28.39h-28.3V371.75H785.62v-28.4h28.31V315Z" transform="translate(374.82 25.81)"/><polygon class="cls-8" points="1358.57 113.59 1330.26 113.59 1301.96 113.59 1273.66 113.59 1245.35 113.59 1217.05 113.59 1188.75 113.59 1160.44 113.59 1132.14 113.59 1103.84 113.59 1075.53 113.59 1047.23 113.59 1018.92 113.59 990.62 113.59 962.32 113.59 934.01 113.59 905.71 113.59 877.41 113.59 849.1 113.59 849.1 141.99 877.41 141.99 905.71 141.99 934.01 141.99 962.32 141.99 962.32 170.38 990.62 170.38 1018.92 170.38 1018.92 198.78 1047.23 198.78 1047.23 227.18 1075.53 227.18 1075.53 255.57 1103.84 255.57 1103.84 283.96 1103.84 312.36 1132.14 312.36 1160.44 312.36 1188.75 312.36 1217.05 312.36 1245.35 312.36 1273.66 312.36 1301.96 312.36 1330.26 312.36 1358.57 312.36 1386.87 312.36 1415.17 312.36 1415.17 283.96 1415.17 255.57 1415.17 227.18 1415.17 198.78 1415.17 170.38 1415.17 141.99 1415.17 113.59 1386.87 113.59 1358.57 113.59"/><polygon class="cls-9" points="1301.96 823.5 1301.96 851.89 1330.26 851.89 1358.57 851.89 1358.57 823.5 1358.57 795.1 1330.26 795.1 1330.26 766.7 1301.96 766.7 1301.96 795.1 1301.96 823.5"/><polygon class="cls-9" points="1217.05 766.7 1188.75 766.7 1160.44 766.7 1132.14 766.7 1132.14 795.1 1132.14 823.5 1160.44 823.5 1160.44 851.89 1188.75 851.89 1217.05 851.89 1245.35 851.89 1273.66 851.89 1273.66 823.5 1273.66 795.1 1273.66 766.7 1245.35 766.7 1217.05 766.7"/><polygon class="cls-9" points="1160.44 369.15 1160.44 397.55 1188.75 397.55 1188.75 425.94 1217.05 425.94 1217.05 397.55 1245.35 397.55 1245.35 369.15 1217.05 369.15 1217.05 340.75 1188.75 340.75 1188.75 369.15 1160.44 369.15"/><rect class="cls-9" x="1075.53" y="596.32" width="28.3" height="28.4"/><polygon class="cls-9" points="1018.92 681.51 1018.92 709.91 1047.23 709.91 1047.23 681.51 1075.53 681.51 1075.53 653.12 1047.23 653.12 1047.23 624.72 1018.92 624.72 1018.92 653.12 990.62 653.12 990.62 681.51 1018.92 681.51"/><polygon class="cls-7" points="990.62 312.36 962.32 312.36 934.01 312.36 905.71 312.36 877.41 312.36 849.1 312.36 820.8 312.36 792.5 312.36 764.19 312.36 735.89 312.36 735.89 340.75 735.89 369.15 735.89 397.55 735.89 425.94 764.19 425.94 792.5 425.94 820.8 425.94 849.1 425.94 877.41 425.94 905.71 425.94 905.71 397.55 934.01 397.55 934.01 369.15 962.32 369.15 990.62 369.15 1018.92 369.15 1018.92 340.75 1047.23 340.75 1047.23 312.36 1018.92 312.36 990.62 312.36"/><polygon class="cls-9" points="990.62 766.7 962.32 766.7 934.01 766.7 905.71 766.7 877.41 766.7 849.1 766.7 820.8 766.7 792.5 766.7 764.19 766.7 735.89 766.7 735.89 795.1 735.89 823.5 764.19 823.5 764.19 795.1 792.5 795.1 792.5 823.5 792.5 851.89 820.8 851.89 849.1 851.89 877.41 851.89 905.71 851.89 934.01 851.89 962.32 851.89 990.62 851.89 1018.92 851.89 1018.92 823.5 1047.23 823.5 1047.23 795.1 1047.23 766.7 1018.92 766.7 990.62 766.7"/><polygon class="cls-8" points="877.41 227.18 905.71 227.18 905.71 255.57 877.41 255.57 849.1 255.57 849.1 283.96 820.8 283.96 792.5 283.96 792.5 312.36 820.8 312.36 849.1 312.36 877.41 312.36 905.71 312.36 934.01 312.36 962.32 312.36 990.62 312.36 1018.92 312.36 1047.23 312.36 1047.23 283.96 1047.23 255.57 1018.92 255.57 1018.92 227.18 990.62 227.18 990.62 198.78 962.32 198.78 934.01 198.78 905.71 198.78 877.41 198.78 877.41 227.18"/><rect class="cls-10" x="820.8" y="255.57" width="28.3" height="28.4"/><rect class="cls-11" x="764.19" y="851.89" width="28.3" height="28.4"/><polygon class="cls-12" points="764.19 170.38 735.89 170.38 735.89 198.78 735.89 227.18 735.89 255.57 764.19 255.57 764.19 283.96 764.19 312.36 792.5 312.36 792.5 283.96 820.8 283.96 820.8 255.57 849.1 255.57 877.41 255.57 905.71 255.57 905.71 227.18 877.41 227.18 877.41 198.78 905.71 198.78 905.71 170.38 877.41 170.38 849.1 170.38 820.8 170.38 820.8 141.99 792.5 141.99 792.5 113.59 764.19 113.59 764.19 141.99 764.19 170.38"/><polygon class="cls-5" points="735.89 709.91 735.89 738.31 735.89 766.7 764.19 766.7 792.5 766.7 820.8 766.7 849.1 766.7 877.41 766.7 905.71 766.7 934.01 766.7 962.32 766.7 990.62 766.7 1018.92 766.7 1047.23 766.7 1075.53 766.7 1103.84 766.7 1132.14 766.7 1160.44 766.7 1188.75 766.7 1217.05 766.7 1245.35 766.7 1273.66 766.7 1273.66 738.31 1273.66 709.91 1245.35 709.91 1217.05 709.91 1188.75 709.91 1188.75 681.51 1188.75 653.12 1160.44 653.12 1132.14 653.12 1103.84 653.12 1075.53 653.12 1075.53 681.51 1047.23 681.51 1047.23 709.91 1018.92 709.91 1018.92 681.51 990.62 681.51 990.62 653.12 962.32 653.12 934.01 653.12 905.71 653.12 877.41 653.12 849.1 653.12 820.8 653.12 792.5 653.12 764.19 653.12 735.89 653.12 735.89 681.51 735.89 709.91"/><polygon class="cls-13" points="764.19 283.96 764.19 255.57 735.89 255.57 735.89 283.96 707.59 283.96 679.28 283.96 679.28 255.57 650.98 255.57 650.98 283.96 650.98 312.36 679.28 312.36 707.59 312.36 735.89 312.36 764.19 312.36 764.19 283.96"/><polygon class="cls-14" points="707.59 851.89 707.59 880.28 735.89 880.28 735.89 851.89 735.89 823.5 707.59 823.5 707.59 851.89"/><rect class="cls-14" x="707.59" y="709.91" width="28.3" height="28.4"/><rect class="cls-14" x="707.59" y="596.32" width="28.3" height="28.4"/><rect class="cls-14" x="707.59" y="482.74" width="28.3" height="28.39"/><polygon class="cls-15" points="735.89 397.55 707.59 397.55 707.59 369.15 735.89 369.15 735.89 340.75 735.89 312.36 707.59 312.36 707.59 340.75 679.28 340.75 679.28 369.15 679.28 397.55 679.28 425.94 707.59 425.94 707.59 454.34 679.28 454.34 679.28 482.74 679.28 511.13 679.28 539.53 707.59 539.53 707.59 567.93 679.28 567.93 679.28 596.32 679.28 624.72 679.28 653.12 707.59 653.12 707.59 681.51 679.28 681.51 679.28 709.91 679.28 738.31 679.28 766.7 707.59 766.7 707.59 795.1 679.28 795.1 679.28 823.5 679.28 851.89 679.28 880.28 707.59 880.28 707.59 851.89 707.59 823.5 735.89 823.5 735.89 795.1 735.89 766.7 735.89 738.31 707.59 738.31 707.59 709.91 735.89 709.91 735.89 681.51 735.89 653.12 735.89 624.72 707.59 624.72 707.59 596.32 735.89 596.32 735.89 567.93 735.89 539.53 735.89 511.13 707.59 511.13 707.59 482.74 735.89 482.74 735.89 454.34 735.89 425.94 735.89 397.55"/><rect class="cls-14" x="707.59" y="369.15" width="28.3" height="28.4"/><rect class="cls-14" x="679.28" y="766.7" width="28.3" height="28.4"/><rect class="cls-14" x="679.28" y="653.12" width="28.3" height="28.39"/><rect class="cls-14" x="679.28" y="539.53" width="28.3" height="28.4"/><rect class="cls-14" x="679.28" y="425.94" width="28.3" height="28.4"/><rect class="cls-14" x="679.28" y="312.36" width="28.3" height="28.39"/><polygon class="cls-14" points="707.59 283.96 735.89 283.96 735.89 255.57 735.89 227.18 735.89 198.78 735.89 170.38 735.89 141.99 707.59 141.99 679.28 141.99 679.28 170.38 679.28 198.78 679.28 227.18 679.28 255.57 679.28 283.96 707.59 283.96"/><polygon class="cls-9" points="679.28 766.7 650.98 766.7 622.68 766.7 594.37 766.7 566.07 766.7 537.77 766.7 509.46 766.7 481.16 766.7 452.86 766.7 424.55 766.7 396.25 766.7 367.94 766.7 339.64 766.7 311.34 766.7 283.04 766.7 254.73 766.7 226.43 766.7 198.12 766.7 169.82 766.7 141.52 766.7 113.21 766.7 84.91 766.7 84.91 795.1 84.91 823.5 84.91 851.89 113.21 851.89 141.52 851.89 141.52 823.5 169.82 823.5 198.12 823.5 226.43 823.5 226.43 851.89 254.73 851.89 283.04 851.89 311.34 851.89 339.64 851.89 367.94 851.89 367.94 823.5 367.94 795.1 396.25 795.1 396.25 823.5 424.55 823.5 452.86 823.5 481.16 823.5 509.46 823.5 537.77 823.5 537.77 851.89 566.07 851.89 566.07 823.5 594.37 823.5 622.68 823.5 622.68 795.1 650.98 795.1 650.98 823.5 679.28 823.5 679.28 795.1 679.28 766.7"/><polygon class="cls-16" points="650.98 425.94 622.68 425.94 594.37 425.94 566.07 425.94 537.77 425.94 509.46 425.94 509.46 397.55 481.16 397.55 481.16 369.15 452.86 369.15 424.55 369.15 424.55 340.75 396.25 340.75 396.25 312.36 396.25 283.96 396.25 255.57 396.25 227.18 424.55 227.18 424.55 198.78 452.86 198.78 481.16 198.78 509.46 198.78 509.46 170.38 481.16 170.38 452.86 170.38 424.55 170.38 396.25 170.38 396.25 198.78 367.94 198.78 367.94 227.18 367.94 255.57 339.64 255.57 339.64 283.96 339.64 312.36 339.64 340.75 367.94 340.75 367.94 369.15 396.25 369.15 396.25 397.55 424.55 397.55 452.86 397.55 452.86 425.94 481.16 425.94 481.16 454.34 509.46 454.34 537.77 454.34 566.07 454.34 594.37 454.34 622.68 454.34 650.98 454.34 679.28 454.34 679.28 425.94 650.98 425.94"/><polygon class="cls-7" points="650.98 312.36 622.68 312.36 594.37 312.36 566.07 312.36 537.77 312.36 509.46 312.36 481.16 312.36 452.86 312.36 424.55 312.36 396.25 312.36 396.25 340.75 424.55 340.75 424.55 369.15 452.86 369.15 481.16 369.15 481.16 397.55 509.46 397.55 509.46 425.94 537.77 425.94 566.07 425.94 594.37 425.94 622.68 425.94 650.98 425.94 679.28 425.94 679.28 397.55 679.28 369.15 679.28 340.75 679.28 312.36 650.98 312.36"/><polygon class="cls-13" points="650.98 170.38 679.28 170.38 679.28 141.99 707.59 141.99 735.89 141.99 735.89 170.38 764.19 170.38 764.19 141.99 764.19 113.59 735.89 113.59 707.59 113.59 679.28 113.59 650.98 113.59 650.98 141.99 650.98 170.38"/><rect class="cls-17" x="594.37" y="823.5" width="28.3" height="28.39"/><rect class="cls-18" x="566.07" y="823.5" width="28.3" height="28.39"/><polygon class="cls-16" points="566.07 170.38 594.37 170.38 594.37 141.99 622.68 141.99 622.68 113.59 650.98 113.59 679.28 113.59 707.59 113.59 735.89 113.59 764.19 113.59 792.5 113.59 792.5 141.99 820.8 141.99 820.8 170.38 849.1 170.38 877.41 170.38 905.71 170.38 905.71 198.78 934.01 198.78 962.32 198.78 990.62 198.78 990.62 227.18 1018.92 227.18 1018.92 255.57 1047.23 255.57 1047.23 283.96 1047.23 312.36 1047.23 340.75 1018.92 340.75 1018.92 369.15 990.62 369.15 962.32 369.15 934.01 369.15 934.01 397.55 905.71 397.55 905.71 425.94 877.41 425.94 849.1 425.94 820.8 425.94 792.5 425.94 764.19 425.94 735.89 425.94 735.89 454.34 764.19 454.34 792.5 454.34 820.8 454.34 849.1 454.34 877.41 454.34 905.71 454.34 934.01 454.34 934.01 425.94 962.32 425.94 990.62 425.94 990.62 397.55 1018.92 397.55 1047.23 397.55 1047.23 369.15 1075.53 369.15 1075.53 340.75 1103.84 340.75 1103.84 312.36 1103.84 283.96 1103.84 255.57 1075.53 255.57 1075.53 227.18 1047.23 227.18 1047.23 198.78 1018.92 198.78 1018.92 170.38 990.62 170.38 962.32 170.38 962.32 141.99 934.01 141.99 905.71 141.99 877.41 141.99 849.1 141.99 849.1 113.59 820.8 113.59 820.8 85.19 820.8 56.8 792.5 56.8 764.19 56.8 735.89 56.8 707.59 56.8 679.28 56.8 650.98 56.8 622.68 56.8 594.37 56.8 594.37 85.19 594.37 113.59 566.07 113.59 566.07 141.99 566.07 170.38"/><rect class="cls-19" x="537.77" y="141.99" width="28.3" height="28.39"/><rect class="cls-20" x="509.46" y="823.5" width="28.3" height="28.39"/><polygon class="cls-12" points="509.46 170.38 509.46 198.78 537.77 198.78 537.77 227.18 509.46 227.18 509.46 255.57 537.77 255.57 566.07 255.57 594.37 255.57 594.37 283.96 622.68 283.96 622.68 312.36 650.98 312.36 650.98 283.96 650.98 255.57 679.28 255.57 679.28 227.18 679.28 198.78 679.28 170.38 650.98 170.38 650.98 141.99 650.98 113.59 622.68 113.59 622.68 141.99 594.37 141.99 594.37 170.38 566.07 170.38 537.77 170.38 509.46 170.38"/><rect class="cls-21" x="509.46" y="141.99" width="28.3" height="28.39"/><rect class="cls-22" x="481.16" y="823.5" width="28.3" height="28.39"/><rect class="cls-23" x="481.16" y="141.99" width="28.3" height="28.39"/><rect class="cls-24" x="452.86" y="823.5" width="28.3" height="28.39"/><rect class="cls-25" x="424.55" y="823.5" width="28.3" height="28.39"/><polygon class="cls-8" points="452.86 312.36 481.16 312.36 509.46 312.36 537.77 312.36 566.07 312.36 594.37 312.36 622.68 312.36 622.68 283.96 594.37 283.96 594.37 255.57 566.07 255.57 537.77 255.57 509.46 255.57 509.46 227.18 537.77 227.18 537.77 198.78 509.46 198.78 481.16 198.78 452.86 198.78 424.55 198.78 424.55 227.18 396.25 227.18 396.25 255.57 396.25 283.96 396.25 312.36 424.55 312.36 452.86 312.36"/><rect class="cls-26" x="396.25" y="823.5" width="28.3" height="28.39"/><rect class="cls-27" x="198.12" y="482.74" width="28.3" height="28.39"/><rect class="cls-28" x="169.82" y="482.74" width="28.3" height="28.39"/><polygon class="cls-6" points="169.82 653.12 198.12 653.12 226.43 653.12 254.73 653.12 283.04 653.12 311.34 653.12 339.64 653.12 367.94 653.12 396.25 653.12 424.55 653.12 452.86 653.12 481.16 653.12 509.46 653.12 537.77 653.12 566.07 653.12 594.37 653.12 622.68 653.12 650.98 653.12 679.28 653.12 679.28 624.72 679.28 596.32 679.28 567.93 679.28 539.53 679.28 511.13 650.98 511.13 622.68 511.13 594.37 511.13 566.07 511.13 537.77 511.13 509.46 511.13 481.16 511.13 452.86 511.13 424.55 511.13 396.25 511.13 367.94 511.13 339.64 511.13 311.34 511.13 283.04 511.13 254.73 511.13 226.43 511.13 198.12 511.13 169.82 511.13 141.52 511.13 113.21 511.13 84.91 511.13 84.91 539.53 84.91 567.93 84.91 596.32 84.91 624.72 84.91 653.12 113.21 653.12 141.52 653.12 169.82 653.12"/><rect class="cls-29" x="141.52" y="482.74" width="28.3" height="28.39"/><rect class="cls-9" x="141.52" y="198.78" width="28.3" height="28.4"/><polygon class="cls-5" points="141.52 766.7 169.82 766.7 198.12 766.7 226.43 766.7 254.73 766.7 283.04 766.7 311.34 766.7 339.64 766.7 367.94 766.7 396.25 766.7 424.55 766.7 452.86 766.7 481.16 766.7 509.46 766.7 537.77 766.7 566.07 766.7 594.37 766.7 622.68 766.7 650.98 766.7 679.28 766.7 679.28 738.31 679.28 709.91 679.28 681.51 679.28 653.12 650.98 653.12 622.68 653.12 594.37 653.12 566.07 653.12 537.77 653.12 509.46 653.12 481.16 653.12 452.86 653.12 424.55 653.12 396.25 653.12 367.94 653.12 339.64 653.12 311.34 653.12 283.04 653.12 254.73 653.12 226.43 653.12 198.12 653.12 169.82 653.12 141.52 653.12 113.21 653.12 113.21 681.51 113.21 709.91 84.91 709.91 84.91 738.31 84.91 766.7 113.21 766.7 141.52 766.7"/><rect class="cls-27" x="113.21" y="482.74" width="28.3" height="28.39"/><polygon class="cls-9" points="56.61 141.99 56.61 170.38 84.91 170.38 84.91 198.78 113.21 198.78 113.21 170.38 141.52 170.38 141.52 141.99 113.21 141.99 113.21 113.59 84.91 113.59 84.91 141.99 56.61 141.99"/><polygon class="cls-7" points="56.61 397.55 84.91 397.55 84.91 425.94 84.91 454.34 84.91 482.74 84.91 511.13 113.21 511.13 113.21 482.74 141.52 482.74 169.82 482.74 198.12 482.74 226.43 482.74 226.43 511.13 254.73 511.13 283.04 511.13 311.34 511.13 339.64 511.13 367.94 511.13 396.25 511.13 424.55 511.13 452.86 511.13 481.16 511.13 509.46 511.13 537.77 511.13 566.07 511.13 594.37 511.13 622.68 511.13 650.98 511.13 679.28 511.13 679.28 482.74 679.28 454.34 650.98 454.34 622.68 454.34 594.37 454.34 566.07 454.34 537.77 454.34 509.46 454.34 481.16 454.34 481.16 425.94 452.86 425.94 452.86 397.55 424.55 397.55 396.25 397.55 396.25 369.15 367.94 369.15 367.94 340.75 339.64 340.75 339.64 312.36 311.34 312.36 283.04 312.36 254.73 312.36 226.43 312.36 198.12 312.36 169.82 312.36 141.52 312.36 113.21 312.36 84.91 312.36 56.61 312.36 28.3 312.36 0 312.36 0 340.75 0 369.15 0 397.55 28.3 397.55 56.61 397.55"/><path class="cls-8" d="M-318.21,286.56h283v-56.8H-6.87V173h28.3v-28.4h84.91V116.18h84.91V87.78H-261.6v28.4h28.3v28.39h-28.3V173h-28.31v-28.4h-28.3V116.18h28.3V87.78h-84.91V286.56h56.61ZM-205,173v28.4h-28.3V173Z" transform="translate(374.82 25.81)"/></g></g></g></svg>