<svg xmlns="http://www.w3.org/2000/svg" viewBox="0 0 780 204.19"><defs><style>.cls-1{fill:#3c6bd3;}.cls-2{fill:#004dba;}.cls-3{fill:#fff;}</style></defs><title>Asset 17</title><g id="Layer_2" data-name="Layer 2"><g id="Layer_1-2" data-name="Layer 1"><rect x="30" width="15" height="18.79"/><rect x="15" y="18.54" width="15" height="18.79"/><rect x="15" y="37.08" width="15" height="18.79"/><rect x="15" y="148.32" width="15" height="18.79"/><rect x="15" y="166.86" width="15" height="18.79"/><rect x="30" y="185.4" width="15" height="18.79"/><rect x="45" y="185.4" width="15" height="18.79"/><rect x="60" y="185.4" width="15" height="18.79"/><rect x="90" y="185.4" width="15" height="18.79"/><rect x="105" y="185.4" width="15" height="18.79"/><rect x="120" y="185.4" width="15" height="18.79"/><rect x="75" y="185.4" width="15" height="18.79"/><rect x="135" y="185.4" width="15" height="18.79"/><rect x="150" y="185.4" width="15" height="18.79"/><rect x="165" y="185.4" width="15" height="18.79"/><rect x="195" y="185.4" width="15" height="18.79"/><rect x="210" y="185.4" width="15" height="18.79"/><rect x="225" y="185.4" width="15" height="18.79"/><rect x="180" y="185.4" width="15" height="18.79"/><rect x="240" y="185.4" width="15" height="18.79"/><rect x="255" y="185.4" width="15" height="18.79"/><rect x="270" y="185.4" width="15" height="18.79"/><rect x="300" y="185.4" width="15" height="18.79"/><rect x="315" y="185.4" width="15" height="18.79"/><rect x="330" y="185.4" width="15" height="18.79"/><rect x="285" y="185.4" width="15" height="18.79"/><rect x="345" y="185.4" width="15" height="18.79"/><rect x="360" y="185.4" width="15" height="18.79"/><rect x="375" y="185.4" width="15" height="18.79"/><rect x="405" y="185.4" width="15" height="18.79"/><rect x="420" y="185.4" width="15" height="18.79"/><rect x="435" y="185.4" width="15" height="18.79"/><rect x="390" y="185.4" width="15" height="18.79"/><rect x="450" y="185.4" width="15" height="18.79"/><rect x="465" y="185.4" width="15" height="18.79"/><rect x="480" y="185.4" width="15" height="18.79"/><rect x="510" y="185.4" width="15" height="18.79"/><rect x="525" y="185.4" width="15" height="18.79"/><rect x="540" y="185.4" width="15" height="18.79"/><rect x="495" y="185.4" width="15" height="18.79"/><rect x="555" y="185.4" width="15" height="18.79"/><rect x="570" y="185.4" width="15" height="18.79"/><rect x="585" y="185.4" width="15" height="18.79"/><rect x="615" y="185.4" width="15" height="18.79"/><rect x="630" y="185.4" width="15" height="18.79"/><rect x="645" y="185.4" width="15" height="18.79"/><rect x="600" y="185.4" width="15" height="18.79"/><rect x="675" y="185.4" width="15" height="18.79"/><rect x="690" y="185.4" width="15" height="18.79"/><rect x="705" y="185.4" width="15" height="18.79"/><rect x="720" y="185.4" width="15" height="18.79"/><rect x="660" y="185.4" width="15" height="18.79"/><rect y="55.62" width="15" height="18.79"/><rect y="74.16" width="15" height="18.79"/><rect y="92.7" width="15" height="18.79"/><rect y="111.24" width="15" height="18.79"/><rect y="129.78" width="15" height="18.79"/><rect class="cls-1" x="30" y="18.54" width="15" height="18.79"/><rect class="cls-1" x="30" y="37.08" width="15" height="18.79"/><rect class="cls-1" x="30" y="148.32" width="15" height="18.79"/><rect class="cls-1" x="30" y="166.86" width="15" height="18.79"/><rect class="cls-1" x="15" y="55.62" width="15" height="18.79"/><rect class="cls-1" x="15" y="74.16" width="15" height="18.79"/><rect class="cls-1" x="15" y="92.7" width="15" height="18.79"/><rect class="cls-1" x="15" y="111.24" width="15" height="18.79"/><rect class="cls-1" x="15" y="129.78" width="15" height="18.79"/><rect x="735" y="185.4" width="15" height="18.79" transform="translate(1485 389.59) rotate(180)"/><rect class="cls-1" x="45" y="166.86" width="15" height="18.79"/><rect class="cls-1" x="60" y="166.86" width="15" height="18.79"/><rect class="cls-1" x="90" y="166.86" width="15" height="18.79"/><rect class="cls-1" x="105" y="166.86" width="15" height="18.79"/><rect class="cls-1" x="120" y="166.86" width="15" height="18.79"/><rect class="cls-1" x="75" y="166.86" width="15" height="18.79"/><rect class="cls-1" x="135" y="166.86" width="15" height="18.79"/><rect class="cls-1" x="150" y="166.86" width="15" height="18.79"/><rect class="cls-1" x="165" y="166.86" width="15" height="18.79"/><rect class="cls-1" x="195" y="166.86" width="15" height="18.79"/><rect class="cls-1" x="210" y="166.86" width="15" height="18.79"/><rect class="cls-1" x="225" y="166.86" width="15" height="18.79"/><rect class="cls-1" x="180" y="166.86" width="15" height="18.79"/><rect class="cls-1" x="240" y="166.86" width="15" height="18.79"/><rect class="cls-1" x="255" y="166.86" width="15" height="18.79"/><rect class="cls-1" x="270" y="166.86" width="15" height="18.79"/><rect class="cls-1" x="300" y="166.86" width="15" height="18.79"/><rect class="cls-1" x="315" y="166.86" width="15" height="18.79"/><rect class="cls-1" x="330" y="166.86" width="15" height="18.79"/><rect class="cls-1" x="285" y="166.86" width="15" height="18.79"/><rect class="cls-1" x="345" y="166.86" width="15" height="18.79"/><rect class="cls-1" x="360" y="166.86" width="15" height="18.79"/><rect class="cls-1" x="375" y="166.86" width="15" height="18.79"/><rect class="cls-1" x="405" y="166.86" width="15" height="18.79"/><rect class="cls-1" x="420" y="166.86" width="15" height="18.79"/><rect class="cls-1" x="435" y="166.86" width="15" height="18.79"/><rect class="cls-1" x="390" y="166.86" width="15" height="18.79"/><rect class="cls-1" x="450" y="166.86" width="15" height="18.79"/><rect class="cls-1" x="465" y="166.86" width="15" height="18.79"/><rect class="cls-1" x="480" y="166.86" width="15" height="18.79"/><rect class="cls-1" x="510" y="166.86" width="15" height="18.79"/><rect class="cls-1" x="525" y="166.86" width="15" height="18.79"/><rect class="cls-1" x="540" y="166.86" width="15" height="18.79"/><rect class="cls-1" x="495" y="166.86" width="15" height="18.79"/><rect class="cls-1" x="555" y="166.86" width="15" height="18.79"/><rect class="cls-1" x="570" y="166.86" width="15" height="18.79"/><rect class="cls-1" x="585" y="166.86" width="30" height="18.79"/><rect class="cls-1" x="615" y="166.86" width="15" height="18.79"/><rect class="cls-1" x="630" y="166.86" width="90" height="18.79"/><polygon class="cls-2" points="67 18.79 750 18.79 750 55.87 750 148.57 735.62 148.57 735.62 167.11 45 167.11 45 148.57 30 148.57 30 55.87 45 55.87 45 18.79 67 18.79"/><rect class="cls-1" x="720" y="166.86" width="15" height="18.79"/><rect class="cls-1" x="735" y="166.86" width="15" height="18.79" transform="translate(1485 352.51) rotate(180)"/><rect x="30" width="15" height="18.79"/><rect x="45" width="15" height="18.79"/><rect x="60" width="15" height="18.79"/><rect x="90" width="15" height="18.79"/><rect x="105" width="15" height="18.79"/><rect x="120" width="15" height="18.79"/><rect x="75" width="15" height="18.79"/><rect x="135" width="15" height="18.79"/><rect x="150" width="15" height="18.79"/><rect x="165" width="15" height="18.79"/><rect x="195" width="15" height="18.79"/><rect x="210" width="15" height="18.79"/><rect x="225" width="15" height="18.79"/><rect x="180" width="15" height="18.79"/><rect x="240" width="15" height="18.79"/><rect x="255" width="15" height="18.79"/><rect x="270" width="15" height="18.79"/><rect x="300" width="15" height="18.79"/><rect x="315" width="15" height="18.79"/><rect x="330" width="15" height="18.79"/><rect x="285" width="15" height="18.79"/><rect x="345" width="15" height="18.79"/><rect x="360" width="15" height="18.79"/><rect x="375" width="15" height="18.79"/><rect x="405" width="15" height="18.79"/><rect x="420" width="15" height="18.79"/><rect x="435" width="15" height="18.79"/><rect x="390" width="15" height="18.79"/><rect x="450" width="15" height="18.79"/><rect x="465" width="15" height="18.79"/><rect x="480" width="15" height="18.79"/><rect x="510" width="15" height="18.79"/><rect x="525" width="15" height="18.79"/><rect x="540" width="15" height="18.79"/><rect x="495" width="15" height="18.79"/><rect x="555" width="15" height="18.79"/><rect x="570" width="15" height="18.79"/><rect x="585" width="15" height="18.79"/><rect x="615" width="15" height="18.79"/><rect x="630" width="15" height="18.79"/><rect x="645" width="15" height="18.79"/><rect x="600" width="15" height="18.79"/><rect x="675" width="15" height="18.79"/><rect x="690" width="15" height="18.79"/><rect x="705" width="15" height="18.79"/><rect x="720" width="15" height="18.79"/><rect x="660" width="15" height="18.79"/><rect x="735" width="15" height="18.79" transform="translate(1485 18.79) rotate(180)"/><rect x="750" y="166.86" width="15" height="18.79" transform="translate(1515 352.51) rotate(180)"/><rect x="750" y="148.32" width="15" height="18.79" transform="translate(1515 315.43) rotate(180)"/><rect x="750" y="37.08" width="15" height="18.79" transform="translate(1515 92.95) rotate(180)"/><rect x="750" y="18.54" width="15" height="18.79" transform="translate(1515 55.87) rotate(180)"/><rect x="739" width="15" height="18.79" transform="translate(1493 18.79) rotate(180)"/><rect x="765" y="129.78" width="15" height="18.79" transform="translate(1545 278.35) rotate(180)"/><rect x="765" y="111.24" width="15" height="18.79" transform="translate(1545 241.27) rotate(180)"/><rect x="765" y="92.7" width="15" height="18.79" transform="translate(1545 204.19) rotate(180)"/><rect x="765" y="74.16" width="15" height="18.79" transform="translate(1545 167.11) rotate(180)"/><rect x="765" y="55.62" width="15" height="18.79" transform="translate(1545 130.03) rotate(180)"/><rect class="cls-1" x="735" y="148.32" width="15" height="18.79" transform="translate(1485 315.43) rotate(180)"/><rect class="cls-1" x="750" y="129.78" width="15" height="18.79" transform="translate(1515 278.35) rotate(180)"/><rect class="cls-1" x="750" y="111.24" width="15" height="18.79" transform="translate(1515 241.27) rotate(180)"/><rect class="cls-1" x="750" y="92.7" width="15" height="18.79" transform="translate(1515 204.19) rotate(180)"/><rect class="cls-1" x="750" y="74.16" width="15" height="18.79" transform="translate(1515 167.11) rotate(180)"/><rect class="cls-1" x="750" y="55.62" width="15" height="18.79" transform="translate(1515 130.03) rotate(180)"/><rect class="cls-3" x="45" y="37.08" width="15" height="18.79"/><rect class="cls-3" x="30" y="55.62" width="15" height="18.79"/><rect class="cls-3" x="60" y="18.79" width="15" height="18.54"/><rect class="cls-3" x="75" y="18.79" width="15" height="18.54"/><rect class="cls-3" x="720" y="148.32" width="15" height="18.79"/><rect class="cls-3" x="735" y="129.78" width="15" height="18.79"/><rect class="cls-3" x="735" y="18.79" width="15" height="18.54"/><rect class="cls-3" x="735" y="37.08" width="15" height="18.79"/><rect class="cls-3" x="720" y="18.79" width="15" height="18.54"/><rect class="cls-3" x="705" y="18.79" width="15" height="18.54"/><rect class="cls-3" x="177.87" y="54.62" width="14.22" height="16.09"/><rect class="cls-3" x="163.65" y="38.53" width="14.22" height="16.09"/><rect class="cls-3" x="149.43" y="38.53" width="14.22" height="16.09"/><rect class="cls-3" x="135.22" y="38.53" width="14.22" height="16.09"/><rect class="cls-3" x="121" y="54.62" width="14.22" height="16.09"/><rect class="cls-3" x="121" y="70.72" width="14.22" height="16.09"/><rect class="cls-3" x="135.22" y="86.81" width="14.22" height="16.09"/><rect class="cls-3" x="149.43" y="86.81" width="14.22" height="16.09"/><rect class="cls-3" x="163.65" y="86.81" width="14.22" height="16.09"/><rect class="cls-3" x="177.87" y="102.91" width="14.22" height="16.09"/><rect class="cls-3" x="177.87" y="119" width="14.22" height="16.09"/><rect class="cls-3" x="163.65" y="135.1" width="14.22" height="16.09"/><rect class="cls-3" x="149.43" y="135.1" width="14.22" height="16.09"/><rect class="cls-3" x="135.22" y="135.1" width="14.22" height="16.09"/><rect class="cls-3" x="121" y="119" width="14.22" height="16.09"/><rect class="cls-3" x="232" y="38.19" width="14.22" height="16.09"/><rect class="cls-3" x="246.22" y="38.19" width="14.22" height="16.09"/><rect class="cls-3" x="260.43" y="38.19" width="14.22" height="16.09"/><rect class="cls-3" x="274.65" y="38.19" width="14.22" height="16.09"/><rect class="cls-3" x="288.86" y="38.19" width="14.22" height="16.09"/><rect class="cls-3" x="260.43" y="54.28" width="14.22" height="16.09"/><rect class="cls-3" x="260.43" y="70.38" width="14.22" height="16.09"/><rect class="cls-3" x="260.43" y="86.47" width="14.22" height="16.09"/><rect class="cls-3" x="260.43" y="102.57" width="14.22" height="16.09"/><rect class="cls-3" x="260.43" y="118.66" width="14.22" height="16.09"/><rect class="cls-3" x="260.43" y="134.75" width="14.22" height="16.09"/><rect class="cls-3" x="584.92" y="38.19" width="14.22" height="16.09"/><rect class="cls-3" x="599.13" y="38.19" width="14.22" height="16.09"/><rect class="cls-3" x="613.35" y="38.19" width="14.22" height="16.09"/><rect class="cls-3" x="627.57" y="38.19" width="14.22" height="16.09"/><rect class="cls-3" x="641.78" y="38.19" width="14.22" height="16.09"/><rect class="cls-3" x="613.35" y="54.28" width="14.22" height="16.09"/><rect class="cls-3" x="613.35" y="70.38" width="14.22" height="16.09"/><rect class="cls-3" x="613.35" y="86.47" width="14.22" height="16.09"/><rect class="cls-3" x="613.35" y="102.57" width="14.22" height="16.09"/><rect class="cls-3" x="613.35" y="118.66" width="14.22" height="16.09"/><rect class="cls-3" x="613.35" y="134.75" width="14.22" height="16.09"/><rect class="cls-3" x="471.88" y="38.19" width="14.22" height="16.09"/><rect class="cls-3" x="486.1" y="38.19" width="14.22" height="16.09"/><rect class="cls-3" x="500.31" y="38.19" width="14.22" height="16.09"/><rect class="cls-3" x="514.53" y="38.19" width="14.22" height="16.09"/><rect class="cls-3" x="528.75" y="54.28" width="14.22" height="16.09"/><rect class="cls-3" x="528.75" y="70.38" width="14.22" height="16.09"/><rect class="cls-3" x="514.53" y="86.47" width="14.22" height="16.09"/><rect class="cls-3" x="500.31" y="86.47" width="14.22" height="16.09"/><rect class="cls-3" x="486.1" y="86.47" width="14.22" height="16.09"/><rect class="cls-3" x="528.75" y="102.57" width="14.22" height="16.09"/><rect class="cls-3" x="528.75" y="118.66" width="14.22" height="16.09"/><rect class="cls-3" x="528.75" y="134.75" width="14.22" height="16.09"/><rect class="cls-3" x="471.88" y="54.28" width="14.22" height="16.09"/><rect class="cls-3" x="471.88" y="70.38" width="14.22" height="16.09"/><rect class="cls-3" x="471.88" y="86.47" width="14.22" height="16.09"/><rect class="cls-3" x="471.88" y="102.57" width="14.22" height="16.09"/><rect class="cls-3" x="471.88" y="118.66" width="14.22" height="16.09"/><rect class="cls-3" x="471.88" y="134.75" width="14.22" height="16.09"/><rect class="cls-3" x="346.33" y="134.75" width="11.83" height="16.09"/><rect class="cls-3" x="346.33" y="118.66" width="11.83" height="16.09"/><rect class="cls-3" x="346.33" y="102.57" width="58.66" height="16.09"/><rect class="cls-3" x="346.33" y="86.47" width="11.83" height="16.09"/><rect class="cls-3" x="404.99" y="134.75" width="11.83" height="16.09"/><rect class="cls-3" x="404.99" y="118.66" width="11.83" height="16.09"/><rect class="cls-3" x="404.99" y="102.57" width="11.83" height="16.09"/><rect class="cls-3" x="404.99" y="86.47" width="11.83" height="16.09"/><rect class="cls-3" x="346.33" y="70.38" width="11.83" height="16.09"/><rect class="cls-3" x="358.16" y="54.28" width="11.83" height="16.09"/><rect class="cls-3" x="404.99" y="70.38" width="11.83" height="16.09"/><rect class="cls-3" x="393.16" y="54.28" width="11.83" height="16.09"/><rect class="cls-3" x="369.5" y="38.19" width="11.83" height="16.09"/><rect class="cls-3" x="381.33" y="38.19" width="11.83" height="16.09"/></g></g></svg>