<svg xmlns="http://www.w3.org/2000/svg" xmlns:xlink="http://www.w3.org/1999/xlink" viewBox="0 0 1392.12 920.58"><defs><style>.cls-1{fill:none;}.cls-2{clip-path:url(#clip-path);}.cls-3{fill:#fbe8d4;}.cls-4{fill:#798690;}.cls-5{fill:#fbf3e6;}.cls-6{fill:#faf0db;}.cls-7{fill:#faf1dc;}.cls-8{fill:#fbf3e0;}.cls-9{fill:#faf1dd;}.cls-10{fill:#faf2de;}.cls-11{fill:#b10b1c;}.cls-12{fill:#ee7d31;}.cls-13{fill:#ccf103;}.cls-14{fill:#0a75bd;}.cls-15{fill:#d7b191;}.cls-16{fill:#f8d840;}.cls-17{fill:#0278cb;}.cls-18{fill:#0171ba;}.cls-19{fill:#0b0c0b;}.cls-20{fill:#cb3644;}.cls-21{fill:#f7d843;}.cls-22{fill:#f8d944;}.cls-23{fill:#f8d940;}.cls-24{fill:#99a392;}.cls-25{fill:#f1dab1;}.cls-26{fill:#6e93ac;}.cls-27{fill:#f4cf32;}.cls-28{fill:#cfaa74;}.cls-29{fill:#d1ad77;}.cls-30{fill:#c8a985;}.cls-31{fill:#ecb4cd;}.cls-32{fill:#0e1114;}.cls-33{fill:#c8a97f;}.cls-34{fill:#faefde;}.cls-35{fill:#faf2e4;}.cls-36{fill:#f9efde;}.cls-37{fill:#fbf2e4;}.cls-38{fill:#fbf2e3;}.cls-39{fill:#faf2e3;}.cls-40{fill:#faf1e2;}.cls-41{fill:#faf2e1;}.cls-42{fill:#faf2e5;}.cls-43{fill:#fbf2e6;}.cls-44{fill:#fbf3e8;}.cls-45{fill:#faf3e8;}.cls-46{fill:#faf4e9;}.cls-47{fill:#faf5ea;}.cls-48{fill:#faf6eb;}.cls-49{fill:#f9f1e0;}.cls-50{fill:#f9f0df;}.cls-51{fill:#f9eedd;}.cls-52{fill:#faf1e0;}.cls-53{fill:#fbf3e5;}.cls-54{fill:#fcf6a5;}.cls-55{fill:#da4f2b;}.cls-56{fill:#fff;}.cls-57{fill:#f4be64;}.cls-58{fill:#ddc58c;}.cls-59{fill:#f5bf64;}</style><clipPath id="clip-path" transform="translate(534.99 16.47)"><rect class="cls-1" width="499.27" height="891.41" rx="20"/></clipPath></defs><title>Asset 21</title><g id="Layer_2" data-name="Layer 2"><g id="Layer_7" data-name="Layer 7"><g class="cls-2"><polygon class="cls-3" points="1378.06 0 1364.14 0 1350.22 0 1336.3 0 1322.38 0 1308.46 0 1294.54 0 1280.62 0 1266.7 0 1252.78 0 1238.86 0 1224.94 0 1211.02 0 1197.1 0 1183.18 0 1169.26 0 1155.34 0 1141.42 0 1127.5 0 1113.58 0 1099.66 0 1085.74 0 1071.82 0 1057.9 0 1043.98 0 1030.06 0 1016.14 0 1002.22 0 988.3 0 974.38 0 960.46 0 946.54 0 932.63 0 918.71 0 904.78 0 890.87 0 876.95 0 863.03 0 849.11 0 835.19 0 821.27 0 807.35 0 793.43 0 779.51 0 765.59 0 751.67 0 737.75 0 723.83 0 709.91 0 695.99 0 682.07 0 668.15 0 654.23 0 640.31 0 626.39 0 612.47 0 598.55 0 584.63 0 570.71 0 556.79 0 542.87 0 528.95 0 515.03 0 501.11 0 487.19 0 473.27 0 459.35 0 445.43 0 431.51 0 417.59 0 403.67 0 389.75 0 375.83 0 361.91 0 347.99 0 334.07 0 320.15 0 306.24 0 292.31 0 278.39 0 264.48 0 250.56 0 236.64 0 222.72 0 208.8 0 194.88 0 180.96 0 167.04 0 153.12 0 139.2 0 125.28 0 111.36 0 97.44 0 83.52 0 69.6 0 55.68 0 41.76 0 27.84 0 13.92 0 0 0 0 13.95 0 27.9 0 41.84 0 55.79 0 69.74 0 83.69 0 97.64 0 111.59 0 125.53 0 139.48 0 153.43 0 167.38 0 181.32 0 195.28 0 209.22 0 223.17 0 237.12 0 251.07 0 265.01 0 278.97 0 292.91 0 306.86 0 320.81 0 334.76 0 348.7 0 362.66 0 376.6 13.92 376.6 27.84 376.6 41.76 376.6 55.68 376.6 69.6 376.6 83.52 376.6 97.44 376.6 111.36 376.6 125.28 376.6 139.2 376.6 153.12 376.6 167.04 376.6 180.96 376.6 194.88 376.6 208.8 376.6 222.72 376.6 236.64 376.6 250.56 376.6 264.48 376.6 278.39 376.6 292.31 376.6 306.24 376.6 320.15 376.6 334.07 376.6 347.99 376.6 361.91 376.6 375.83 376.6 389.75 376.6 403.67 376.6 417.59 376.6 431.51 376.6 445.43 376.6 459.35 376.6 473.27 376.6 487.19 376.6 501.11 376.6 515.03 376.6 528.95 376.6 542.87 376.6 556.79 376.6 570.71 376.6 584.63 376.6 598.55 376.6 612.47 376.6 626.39 376.6 640.31 376.6 654.23 376.6 668.15 376.6 682.07 376.6 695.99 376.6 709.91 376.6 723.83 376.6 737.75 376.6 751.67 376.6 765.59 376.6 779.51 376.6 793.43 376.6 807.35 376.6 821.27 376.6 835.19 376.6 849.11 376.6 863.03 376.6 876.95 376.6 890.87 376.6 904.78 376.6 918.71 376.6 932.63 376.6 946.54 376.6 960.46 376.6 974.38 376.6 988.3 376.6 1002.22 376.6 1016.14 376.6 1030.06 376.6 1043.98 376.6 1043.98 390.55 1043.98 404.5 1043.98 418.45 1043.98 432.39 1043.98 446.35 1043.98 460.29 1057.9 460.29 1071.82 460.29 1085.74 460.29 1099.66 460.29 1113.58 460.29 1127.5 460.29 1141.42 460.29 1155.34 460.29 1169.26 460.29 1183.18 460.29 1197.1 460.29 1211.02 460.29 1224.94 460.29 1238.86 460.29 1252.78 460.29 1266.7 460.29 1280.62 460.29 1294.54 460.29 1308.46 460.29 1322.38 460.29 1336.3 460.29 1350.22 460.29 1364.14 460.29 1378.06 460.29 1391.98 460.29 1391.98 446.35 1391.98 432.39 1391.98 418.45 1391.98 404.5 1391.98 390.55 1391.98 376.6 1391.98 362.66 1391.98 348.7 1391.98 334.76 1391.98 320.81 1391.98 306.86 1391.98 292.91 1391.98 278.97 1391.98 265.01 1391.98 251.07 1391.98 237.12 1391.98 223.17 1391.98 209.22 1391.98 195.28 1391.98 181.32 1391.98 167.38 1391.98 153.43 1391.98 139.48 1391.98 125.53 1391.98 111.59 1391.98 97.64 1391.98 83.69 1391.98 69.74 1391.98 55.79 1391.98 41.84 1391.98 27.9 1391.98 13.95 1391.98 0 1378.06 0"/><polygon class="cls-4" points="1364.14 627.67 1350.22 627.67 1336.3 627.67 1322.38 627.67 1308.46 627.67 1294.54 627.67 1280.62 627.67 1266.7 627.67 1252.78 627.67 1238.86 627.67 1224.94 627.67 1211.02 627.67 1197.1 627.67 1183.18 627.67 1169.26 627.67 1155.34 627.67 1141.42 627.67 1127.5 627.67 1113.58 627.67 1099.66 627.67 1085.74 627.67 1085.74 641.62 1099.66 641.62 1099.66 655.57 1099.66 669.51 1113.58 669.51 1113.58 683.46 1127.5 683.46 1127.5 697.41 1141.42 697.41 1141.42 711.36 1127.5 711.36 1113.58 711.36 1099.66 711.36 1085.74 711.36 1071.82 711.36 1057.9 711.36 1043.98 711.36 1030.06 711.36 1016.14 711.36 1002.22 711.36 988.3 711.36 974.38 711.36 960.46 711.36 946.54 711.36 932.63 711.36 918.71 711.36 904.78 711.36 890.87 711.36 876.95 711.36 863.03 711.36 849.11 711.36 835.19 711.36 821.27 711.36 807.35 711.36 793.43 711.36 793.43 697.41 779.51 697.41 765.59 697.41 765.59 711.36 751.67 711.36 737.75 711.36 723.83 711.36 723.83 697.41 709.91 697.41 695.99 697.41 695.99 711.36 682.07 711.36 668.15 711.36 668.15 697.41 654.23 697.41 640.31 697.41 626.39 697.41 626.39 711.36 612.47 711.36 598.55 711.36 598.55 697.41 584.63 697.41 570.71 697.41 570.71 711.36 556.79 711.36 542.87 711.36 528.95 711.36 528.95 697.41 515.03 697.41 515.03 711.36 501.11 711.36 501.11 697.41 501.11 683.46 515.03 683.46 515.03 669.51 528.95 669.51 528.95 655.57 542.87 655.57 542.87 641.62 542.87 627.67 528.95 627.67 515.03 627.67 501.11 627.67 487.19 627.67 473.27 627.67 459.35 627.67 445.43 627.67 431.51 627.67 417.59 627.67 403.67 627.67 389.75 627.67 375.83 627.67 361.91 627.67 347.99 627.67 334.07 627.67 320.15 627.67 306.24 627.67 292.31 627.67 278.39 627.67 264.48 627.67 250.56 627.67 236.64 627.67 222.72 627.67 208.8 627.67 194.88 627.67 180.96 627.67 167.04 627.67 153.12 627.67 139.2 627.67 125.28 627.67 111.36 627.67 97.44 627.67 83.52 627.67 69.6 627.67 55.68 627.67 41.76 627.67 27.84 627.67 13.92 627.67 0 627.67 0 641.62 0 655.57 0 669.51 0 683.46 0 697.41 0 711.36 0 725.3 0 739.26 0 753.21 0 767.15 0 781.1 0 795.05 0 809 0 822.95 0 836.89 0 850.84 0 864.79 0 878.74 0 892.68 0 906.64 0 920.58 13.92 920.58 27.84 920.58 41.76 920.58 55.68 920.58 69.6 920.58 83.52 920.58 97.44 920.58 111.36 920.58 125.28 920.58 139.2 920.58 153.12 920.58 167.04 920.58 180.96 920.58 194.88 920.58 208.8 920.58 222.72 920.58 236.64 920.58 250.56 920.58 264.48 920.58 278.39 920.58 292.31 920.58 306.24 920.58 320.15 920.58 334.07 920.58 347.99 920.58 361.91 920.58 375.83 920.58 389.75 920.58 403.67 920.58 417.59 920.58 431.51 920.58 445.43 920.58 459.35 920.58 473.27 920.58 487.19 920.58 501.11 920.58 515.03 920.58 528.95 920.58 542.87 920.58 556.79 920.58 570.71 920.58 584.63 920.58 598.55 920.58 612.47 920.58 626.39 920.58 640.31 920.58 654.23 920.58 668.15 920.58 682.07 920.58 695.99 920.58 709.91 920.58 723.83 920.58 737.75 920.58 751.67 920.58 765.59 920.58 779.51 920.58 793.43 920.58 807.35 920.58 821.27 920.58 835.19 920.58 849.11 920.58 863.03 920.58 876.95 920.58 890.87 920.58 904.78 920.58 918.71 920.58 932.63 920.58 946.54 920.58 960.46 920.58 974.38 920.58 988.3 920.58 1002.22 920.58 1016.14 920.58 1030.06 920.58 1043.98 920.58 1057.9 920.58 1071.82 920.58 1085.74 920.58 1099.66 920.58 1113.58 920.58 1127.5 920.58 1141.42 920.58 1155.34 920.58 1169.26 920.58 1183.18 920.58 1197.1 920.58 1211.02 920.58 1224.94 920.58 1238.86 920.58 1252.78 920.58 1266.7 920.58 1280.62 920.58 1294.54 920.58 1308.46 920.58 1322.38 920.58 1336.3 920.58 1350.22 920.58 1364.14 920.58 1378.06 920.58 1391.98 920.58 1391.98 906.64 1391.98 892.68 1391.98 878.74 1391.98 864.79 1391.98 850.84 1391.98 836.89 1391.98 822.95 1391.98 809 1391.98 795.05 1391.98 781.1 1391.98 767.15 1391.98 753.21 1391.98 739.26 1391.98 725.3 1391.98 711.36 1391.98 697.41 1391.98 683.46 1391.98 669.51 1391.98 655.57 1391.98 641.62 1391.98 627.67 1378.06 627.67 1364.14 627.67"/><path class="cls-5" d="M829.14,443.82H495.07v83.69H509v13.94h13.92v27.9h13.92v27.9h13.92v14H857V443.82H829.14ZM578.59,555.41h13.92v-14H578.59V527.51h13.92v13.94h13.92v14H592.51v13.94H578.59Zm41.76,0h13.92v13.94H620.35Zm27.84,0v-14h13.92v27.9H648.19Z" transform="translate(534.99 16.47)"/><rect class="cls-6" x="1183.18" y="571.88" width="13.92" height="13.95"/><rect class="cls-7" x="1183.18" y="557.93" width="13.92" height="13.95"/><rect class="cls-7" x="1155.34" y="571.88" width="13.92" height="13.95"/><rect class="cls-8" x="1127.5" y="557.93" width="13.92" height="13.95"/><rect class="cls-9" x="1113.58" y="571.88" width="13.92" height="13.95"/><rect class="cls-8" x="1113.58" y="543.98" width="13.92" height="13.95"/><rect class="cls-10" x="1043.98" y="557.93" width="13.92" height="13.95"/><polygon class="cls-11" points="1030.06 571.88 1030.06 585.83 1030.06 599.77 1016.14 599.77 1002.22 599.77 1002.22 613.73 1002.22 627.67 988.3 627.67 974.38 627.67 960.46 627.67 946.54 627.67 932.63 627.67 918.71 627.67 904.78 627.67 890.87 627.67 876.95 627.67 876.95 613.73 863.03 613.73 849.11 613.73 849.11 599.77 849.11 585.83 849.11 571.88 863.03 571.88 863.03 557.93 863.03 543.98 876.95 543.98 890.87 543.98 890.87 530.04 904.78 530.04 918.71 530.04 932.63 530.04 946.54 530.04 960.46 530.04 974.38 530.04 974.38 543.98 988.3 543.98 988.3 530.04 988.3 516.08 974.38 516.08 960.46 516.08 946.54 516.08 932.63 516.08 918.71 516.08 904.78 516.08 890.87 516.08 876.95 516.08 876.95 530.04 863.03 530.04 849.11 530.04 849.11 543.98 835.19 543.98 835.19 557.93 821.27 557.93 821.27 571.88 807.35 571.88 807.35 585.83 807.35 599.77 807.35 613.73 807.35 627.67 807.35 641.62 793.43 641.62 793.43 655.57 793.43 669.51 793.43 683.46 793.43 697.41 793.43 711.36 807.35 711.36 821.27 711.36 835.19 711.36 849.11 711.36 863.03 711.36 876.95 711.36 876.95 697.41 876.95 683.46 876.95 669.51 876.95 655.57 876.95 641.62 890.87 641.62 904.78 641.62 904.78 655.57 918.71 655.57 918.71 669.51 932.63 669.51 932.63 683.46 932.63 697.41 932.63 711.36 946.54 711.36 946.54 697.41 946.54 683.46 946.54 669.51 960.46 669.51 960.46 655.57 974.38 655.57 974.38 641.62 988.3 641.62 1002.22 641.62 1002.22 655.57 1002.22 669.51 1002.22 683.46 1002.22 697.41 1002.22 711.36 1016.14 711.36 1030.06 711.36 1043.98 711.36 1057.9 711.36 1071.82 711.36 1085.74 711.36 1099.66 711.36 1113.58 711.36 1127.5 711.36 1141.42 711.36 1141.42 697.41 1127.5 697.41 1127.5 683.46 1113.58 683.46 1113.58 669.51 1099.66 669.51 1099.66 655.57 1099.66 641.62 1085.74 641.62 1085.74 627.67 1085.74 613.73 1071.82 613.73 1071.82 599.77 1071.82 585.83 1057.9 585.83 1057.9 571.88 1043.98 571.88 1043.98 557.93 1043.98 543.98 1030.06 543.98 1030.06 557.93 1030.06 571.88"/><rect class="cls-12" x="1030.06" y="446.35" width="13.92" height="13.95"/><polygon class="cls-13" points="1016.14 446.35 1002.22 446.35 988.3 446.35 988.3 460.29 988.3 474.24 988.3 488.19 988.3 502.14 988.3 516.08 988.3 530.04 988.3 543.98 988.3 557.93 1002.22 557.93 1016.14 557.93 1030.06 557.93 1030.06 543.98 1030.06 530.04 1030.06 516.08 1030.06 502.14 1030.06 488.19 1030.06 474.24 1030.06 460.29 1030.06 446.35 1016.14 446.35"/><polygon class="cls-13" points="1016.14 571.88 1002.22 571.88 1002.22 585.83 1002.22 599.77 1016.14 599.77 1016.14 585.83 1016.14 571.88"/><polygon class="cls-14" points="1002.22 683.46 1002.22 669.51 1002.22 655.57 1002.22 641.62 988.3 641.62 974.38 641.62 974.38 655.57 960.46 655.57 960.46 669.51 946.54 669.51 946.54 683.46 946.54 697.41 946.54 711.36 960.46 711.36 974.38 711.36 988.3 711.36 1002.22 711.36 1002.22 697.41 1002.22 683.46"/><polygon class="cls-15" points="988.3 585.83 988.3 599.77 1002.22 599.77 1002.22 585.83 1002.22 571.88 1016.14 571.88 1016.14 585.83 1016.14 599.77 1030.06 599.77 1030.06 585.83 1030.06 571.88 1030.06 557.93 1016.14 557.93 1002.22 557.93 988.3 557.93 988.3 571.88 988.3 585.83"/><polygon class="cls-12" points="988.3 446.35 1002.22 446.35 1016.14 446.35 1030.06 446.35 1030.06 432.39 1016.14 432.39 1002.22 432.39 988.3 432.39 974.38 432.39 974.38 446.35 988.3 446.35"/><path class="cls-14" d="M439.39,513.56H355.87v14H328v27.9H314.11v13.94h41.76v27.9H342v14H467.23V583.3H453.31V527.51H439.39Zm0,27.89v14H411.55v13.94H397.63V555.41H355.87v-14h27.84V527.51h41.76v13.94Z" transform="translate(534.99 16.47)"/><polygon class="cls-15" points="974.38 488.19 960.46 488.19 946.54 488.19 946.54 474.24 946.54 460.29 932.63 460.29 918.71 460.29 918.71 474.24 918.71 488.19 904.78 488.19 904.78 474.24 890.87 474.24 890.87 488.19 890.87 502.14 890.87 516.08 904.78 516.08 918.71 516.08 932.63 516.08 946.54 516.08 960.46 516.08 974.38 516.08 974.38 502.14 974.38 488.19"/><polygon class="cls-16" points="946.54 543.98 932.63 543.98 918.71 543.98 918.71 557.93 904.78 557.93 904.78 571.88 918.71 571.88 932.63 571.88 932.63 585.83 946.54 585.83 946.54 571.88 960.46 571.88 974.38 571.88 974.38 557.93 960.46 557.93 960.46 543.98 946.54 543.98"/><polygon class="cls-14" points="932.63 683.46 932.63 669.51 918.71 669.51 918.71 655.57 904.78 655.57 890.87 655.57 890.87 641.62 876.95 641.62 876.95 655.57 876.95 669.51 876.95 683.46 876.95 697.41 876.95 711.36 890.87 711.36 904.78 711.36 918.71 711.36 932.63 711.36 932.63 697.41 932.63 683.46"/><rect class="cls-17" x="890.87" y="641.62" width="13.92" height="13.95"/><rect class="cls-18" x="890.87" y="557.93" width="13.92" height="13.95"/><polygon class="cls-12" points="904.78 446.35 904.78 432.39 890.87 432.39 876.95 432.39 876.95 446.35 890.87 446.35 904.78 446.35"/><polygon class="cls-15" points="890.87 599.77 890.87 585.83 876.95 585.83 863.03 585.83 849.11 585.83 849.11 599.77 849.11 613.73 863.03 613.73 876.95 613.73 890.87 613.73 890.87 599.77"/><polygon class="cls-19" points="876.95 488.19 890.87 488.19 890.87 474.24 904.78 474.24 904.78 488.19 918.71 488.19 918.71 474.24 918.71 460.29 932.63 460.29 946.54 460.29 946.54 474.24 946.54 488.19 960.46 488.19 974.38 488.19 974.38 502.14 974.38 516.08 988.3 516.08 988.3 502.14 988.3 488.19 988.3 474.24 988.3 460.29 988.3 446.35 974.38 446.35 974.38 432.39 960.46 432.39 960.46 418.45 946.54 418.45 932.63 418.45 918.71 418.45 918.71 432.39 904.78 432.39 904.78 446.35 890.87 446.35 876.95 446.35 876.95 460.29 876.95 474.24 876.95 488.19"/><polygon class="cls-5" points="807.35 571.88 821.27 571.88 821.27 557.93 835.19 557.93 835.19 543.98 849.11 543.98 849.11 530.04 863.03 530.04 876.95 530.04 876.95 516.08 890.87 516.08 890.87 502.14 890.87 488.19 876.95 488.19 876.95 474.24 876.95 460.29 863.03 460.29 849.11 460.29 835.19 460.29 821.27 460.29 807.35 460.29 793.43 460.29 779.51 460.29 765.59 460.29 751.67 460.29 751.67 474.24 751.67 488.19 751.67 502.14 751.67 516.08 751.67 530.04 751.67 543.98 765.59 543.98 765.59 557.93 765.59 571.88 779.51 571.88 779.51 585.83 793.43 585.83 793.43 599.77 807.35 599.77 807.35 585.83 807.35 571.88"/><rect class="cls-20" x="737.75" y="446.35" width="13.92" height="13.95"/><rect class="cls-21" x="709.91" y="627.67" width="13.92" height="13.95"/><rect class="cls-22" x="695.99" y="627.67" width="13.92" height="13.95"/><rect class="cls-23" x="682.07" y="627.67" width="13.92" height="13.95"/><polygon class="cls-24" points="682.07 557.93 682.07 571.88 682.07 585.83 668.15 585.83 668.15 599.77 682.07 599.77 695.99 599.77 709.91 599.77 723.83 599.77 737.75 599.77 737.75 585.83 737.75 571.88 737.75 557.93 737.75 543.98 737.75 530.04 723.83 530.04 709.91 530.04 695.99 530.04 682.07 530.04 682.07 543.98 682.07 557.93"/><polygon class="cls-25" points="682.07 502.14 695.99 502.14 709.91 502.14 723.83 502.14 737.75 502.14 737.75 488.19 737.75 474.24 723.83 474.24 709.91 474.24 695.99 474.24 682.07 474.24 682.07 488.19 682.07 502.14"/><polygon class="cls-25" points="682.07 571.88 682.07 557.93 668.15 557.93 668.15 571.88 668.15 585.83 682.07 585.83 682.07 571.88"/><polygon class="cls-26" points="668.15 404.5 682.07 404.5 682.07 390.55 695.99 390.55 709.91 390.55 709.91 404.5 723.83 404.5 723.83 418.45 723.83 432.39 737.75 432.39 737.75 446.35 751.67 446.35 751.67 460.29 765.59 460.29 779.51 460.29 793.43 460.29 807.35 460.29 821.27 460.29 835.19 460.29 849.11 460.29 863.03 460.29 876.95 460.29 876.95 446.35 876.95 432.39 890.87 432.39 904.78 432.39 918.71 432.39 918.71 418.45 932.63 418.45 946.54 418.45 960.46 418.45 960.46 432.39 974.38 432.39 988.3 432.39 1002.22 432.39 1016.14 432.39 1030.06 432.39 1030.06 446.35 1043.98 446.35 1043.98 432.39 1043.98 418.45 1043.98 404.5 1043.98 390.55 1043.98 376.6 1030.06 376.6 1016.14 376.6 1002.22 376.6 988.3 376.6 974.38 376.6 960.46 376.6 946.54 376.6 932.63 376.6 918.71 376.6 904.78 376.6 890.87 376.6 876.95 376.6 863.03 376.6 849.11 376.6 835.19 376.6 821.27 376.6 807.35 376.6 793.43 376.6 779.51 376.6 765.59 376.6 751.67 376.6 737.75 376.6 723.83 376.6 709.91 376.6 695.99 376.6 682.07 376.6 668.15 376.6 668.15 390.55 668.15 404.5"/><rect class="cls-27" x="654.23" y="627.67" width="13.92" height="13.95"/><path class="cls-16" d="M119.23,611.2h13.92v13.94H119.23v14H230.59V597.25H119.23Zm41.76,0h27.84v13.94H147.07V611.2Z" transform="translate(534.99 16.47)"/><rect class="cls-28" x="654.23" y="599.77" width="13.92" height="13.95"/><rect class="cls-29" x="654.23" y="585.83" width="13.92" height="13.95"/><rect class="cls-30" x="640.31" y="543.98" width="13.92" height="13.95"/><polygon class="cls-31" points="654.23 530.04 668.15 530.04 682.07 530.04 682.07 516.08 682.07 502.14 682.07 488.19 682.07 474.24 682.07 460.29 668.15 460.29 654.23 460.29 640.31 460.29 640.31 474.24 626.39 474.24 626.39 488.19 626.39 502.14 626.39 516.08 626.39 530.04 640.31 530.04 654.23 530.04"/><path class="cls-32" d="M105.32,374.08v69.74h41.75v13.94h55.68v27.9H147.07v27.9h55.68V583.3h-69.6v14h97.44V639.1H119.23V597.25H105.32v-27.9H91.4V527.51H63.56v13.94H49.64v14H35.72V583.3H21.8v27.9H7.88v27.9H-6V653H-20v14H-33.88v27.9H-20V680.94H-6v13.95H35.72V680.94H63.56v13.95H91.4V680.94h41.75v13.95H161V680.94h27.84v13.95h41.76V680.94h27.84v-55.8h13.92V583.3H258.43V569.35H244.51V555.41H230.59v-27.9H216.67V443.82H202.75v-27.9H188.83V388H174.91V374.08H147.07V388H133.15v-27.9H119.23v13.95ZM161,402v27.9H133.15V415.92h13.92V402Z" transform="translate(534.99 16.47)"/><rect class="cls-26" x="640.31" y="376.6" width="13.92" height="13.95"/><polygon class="cls-25" points="640.31 557.93 626.39 557.93 626.39 571.88 626.39 585.83 640.31 585.83 640.31 571.88 640.31 557.93"/><polygon class="cls-33" points="640.31 557.93 640.31 543.98 654.23 543.98 654.23 557.93 640.31 557.93 640.31 571.88 640.31 585.83 640.31 599.77 640.31 613.73 654.23 613.73 654.23 599.77 654.23 585.83 668.15 585.83 668.15 571.88 668.15 557.93 682.07 557.93 682.07 543.98 682.07 530.04 668.15 530.04 654.23 530.04 640.31 530.04 626.39 530.04 626.39 543.98 626.39 557.93 640.31 557.93"/><rect class="cls-34" x="570.71" y="557.93" width="13.92" height="13.95"/><rect class="cls-35" x="556.79" y="557.93" width="13.92" height="13.95"/><rect class="cls-36" x="445.43" y="585.83" width="13.92" height="13.95"/><rect class="cls-37" x="417.59" y="571.88" width="13.92" height="13.95"/><rect class="cls-38" x="403.67" y="571.88" width="13.92" height="13.95"/><polygon class="cls-39" points="417.59 571.88 431.51 571.88 431.51 557.93 417.59 557.93 403.67 557.93 403.67 571.88 417.59 571.88"/><rect class="cls-40" x="389.75" y="571.88" width="13.92" height="13.95"/><rect class="cls-41" x="389.75" y="557.93" width="13.92" height="13.95"/><rect class="cls-38" x="375.83" y="571.88" width="13.92" height="13.95"/><rect class="cls-42" x="375.83" y="557.93" width="13.92" height="13.95"/><rect class="cls-43" x="361.91" y="571.88" width="13.92" height="13.95"/><polygon class="cls-44" points="347.99 585.83 361.91 585.83 361.91 571.88 375.83 571.88 375.83 557.93 361.91 557.93 347.99 557.93 347.99 571.88 347.99 585.83"/><rect class="cls-45" x="334.07" y="571.88" width="13.92" height="13.95"/><rect class="cls-46" x="320.15" y="571.88" width="13.92" height="13.95"/><polygon class="cls-47" points="320.15 571.88 334.07 571.88 347.99 571.88 347.99 557.93 334.07 557.93 320.15 557.93 306.24 557.93 306.24 571.88 320.15 571.88"/><polygon class="cls-48" points="278.39 571.88 292.31 571.88 306.24 571.88 306.24 557.93 292.31 557.93 278.39 557.93 264.48 557.93 264.48 571.88 278.39 571.88"/><rect class="cls-44" x="250.56" y="557.93" width="13.92" height="13.95"/><rect class="cls-39" x="236.64" y="557.93" width="13.92" height="13.95"/><rect class="cls-49" x="222.72" y="557.93" width="13.92" height="13.95"/><polygon class="cls-50" points="208.8 571.88 222.72 571.88 222.72 557.93 208.8 557.93 194.88 557.93 194.88 571.88 208.8 571.88"/><rect class="cls-36" x="180.96" y="557.93" width="13.92" height="13.95"/><rect class="cls-51" x="167.04" y="557.93" width="13.92" height="13.95"/><polygon class="cls-36" points="139.2 571.88 153.12 571.88 167.04 571.88 167.04 557.93 153.12 557.93 139.2 557.93 125.28 557.93 125.28 571.88 139.2 571.88"/><rect class="cls-50" x="111.36" y="557.93" width="13.92" height="13.95"/><polygon class="cls-52" points="83.52 571.88 97.44 571.88 111.36 571.88 111.36 557.93 97.44 557.93 83.52 557.93 69.6 557.93 69.6 571.88 83.52 571.88"/><rect class="cls-40" x="55.68" y="557.93" width="13.92" height="13.95"/><rect class="cls-53" x="41.76" y="557.93" width="13.92" height="13.95"/><path class="cls-5" d="M-507.15,611.2h529V583.3H35.72V555.41H21.8v-14H63.56V527.51H91.4V457.76h13.92V443.82H-535V555.41h13.92v13.94H-535V611.2h27.84Zm417.59-41.85h13.92V583.3H-89.56Zm-403.67-27.9h389.75v27.9H-214.84V555.41H-493.23Z" transform="translate(534.99 16.47)"/><polygon class="cls-20" points="27.84 460.29 41.76 460.29 55.68 460.29 69.6 460.29 83.52 460.29 97.44 460.29 111.36 460.29 125.28 460.29 139.2 460.29 153.12 460.29 167.04 460.29 180.96 460.29 194.88 460.29 208.8 460.29 222.72 460.29 236.64 460.29 250.56 460.29 264.48 460.29 278.39 460.29 292.31 460.29 306.24 460.29 320.15 460.29 334.07 460.29 347.99 460.29 361.91 460.29 375.83 460.29 389.75 460.29 403.67 460.29 417.59 460.29 431.51 460.29 445.43 460.29 459.35 460.29 473.27 460.29 487.19 460.29 501.11 460.29 515.03 460.29 528.95 460.29 542.87 460.29 556.79 460.29 570.71 460.29 584.63 460.29 598.55 460.29 612.47 460.29 626.39 460.29 640.31 460.29 640.31 446.35 626.39 446.35 612.47 446.35 598.55 446.35 584.63 446.35 570.71 446.35 556.79 446.35 542.87 446.35 528.95 446.35 515.03 446.35 501.11 446.35 487.19 446.35 473.27 446.35 459.35 446.35 445.43 446.35 431.51 446.35 417.59 446.35 403.67 446.35 389.75 446.35 375.83 446.35 361.91 446.35 347.99 446.35 334.07 446.35 320.15 446.35 306.24 446.35 292.31 446.35 278.39 446.35 264.48 446.35 250.56 446.35 236.64 446.35 222.72 446.35 208.8 446.35 194.88 446.35 180.96 446.35 167.04 446.35 153.12 446.35 139.2 446.35 125.28 446.35 111.36 446.35 97.44 446.35 83.52 446.35 69.6 446.35 55.68 446.35 41.76 446.35 27.84 446.35 13.92 446.35 0 446.35 0 460.29 13.92 460.29 27.84 460.29"/><polygon class="cls-3" points="27.84 446.35 41.76 446.35 55.68 446.35 69.6 446.35 83.52 446.35 97.44 446.35 111.36 446.35 125.28 446.35 139.2 446.35 153.12 446.35 167.04 446.35 180.96 446.35 194.88 446.35 208.8 446.35 222.72 446.35 236.64 446.35 250.56 446.35 264.48 446.35 278.39 446.35 292.31 446.35 306.24 446.35 320.15 446.35 334.07 446.35 347.99 446.35 361.91 446.35 375.83 446.35 389.75 446.35 403.67 446.35 417.59 446.35 431.51 446.35 445.43 446.35 459.35 446.35 473.27 446.35 487.19 446.35 501.11 446.35 515.03 446.35 528.95 446.35 542.87 446.35 556.79 446.35 570.71 446.35 584.63 446.35 598.55 446.35 612.47 446.35 626.39 446.35 640.31 446.35 640.31 432.39 640.31 418.45 640.31 404.5 640.31 390.55 626.39 390.55 612.47 390.55 598.55 390.55 584.63 390.55 570.71 390.55 556.79 390.55 542.87 390.55 528.95 390.55 515.03 390.55 501.11 390.55 487.19 390.55 473.27 390.55 459.35 390.55 445.43 390.55 431.51 390.55 417.59 390.55 403.67 390.55 389.75 390.55 375.83 390.55 361.91 390.55 347.99 390.55 334.07 390.55 320.15 390.55 306.24 390.55 292.31 390.55 278.39 390.55 264.48 390.55 250.56 390.55 236.64 390.55 222.72 390.55 208.8 390.55 194.88 390.55 180.96 390.55 167.04 390.55 153.12 390.55 139.2 390.55 125.28 390.55 111.36 390.55 97.44 390.55 83.52 390.55 69.6 390.55 55.68 390.55 41.76 390.55 27.84 390.55 13.92 390.55 0 390.55 0 404.5 0 418.45 0 432.39 0 446.35 13.92 446.35 27.84 446.35"/><polygon class="cls-20" points="27.84 390.55 41.76 390.55 55.68 390.55 69.6 390.55 83.52 390.55 97.44 390.55 111.36 390.55 125.28 390.55 139.2 390.55 153.12 390.55 167.04 390.55 180.96 390.55 194.88 390.55 208.8 390.55 222.72 390.55 236.64 390.55 250.56 390.55 264.48 390.55 278.39 390.55 292.31 390.55 306.24 390.55 320.15 390.55 334.07 390.55 347.99 390.55 361.91 390.55 375.83 390.55 389.75 390.55 403.67 390.55 417.59 390.55 431.51 390.55 445.43 390.55 459.35 390.55 473.27 390.55 487.19 390.55 501.11 390.55 515.03 390.55 528.95 390.55 542.87 390.55 556.79 390.55 570.71 390.55 584.63 390.55 598.55 390.55 612.47 390.55 626.39 390.55 640.31 390.55 640.31 376.6 626.39 376.6 612.47 376.6 598.55 376.6 584.63 376.6 570.71 376.6 556.79 376.6 542.87 376.6 528.95 376.6 515.03 376.6 501.11 376.6 487.19 376.6 473.27 376.6 459.35 376.6 445.43 376.6 431.51 376.6 417.59 376.6 403.67 376.6 389.75 376.6 375.83 376.6 361.91 376.6 347.99 376.6 334.07 376.6 320.15 376.6 306.24 376.6 292.31 376.6 278.39 376.6 264.48 376.6 250.56 376.6 236.64 376.6 222.72 376.6 208.8 376.6 194.88 376.6 180.96 376.6 167.04 376.6 153.12 376.6 139.2 376.6 125.28 376.6 111.36 376.6 97.44 376.6 83.52 376.6 69.6 376.6 55.68 376.6 41.76 376.6 27.84 376.6 13.92 376.6 0 376.6 0 390.55 13.92 390.55 27.84 390.55"/><rect class="cls-52" y="571.88" width="13.92" height="13.95"/><rect class="cls-1" x="1225.08" y="361.42" width="13.92" height="13.95"/><rect class="cls-1" x="1239" y="375.37" width="13.92" height="13.95"/><polygon class="cls-54" points="1378.2 235.88 1364.28 235.88 1350.36 235.88 1336.44 235.88 1322.52 235.88 1308.6 235.88 1294.68 235.88 1280.76 235.88 1266.84 235.88 1252.92 235.88 1239.01 235.88 1225.09 235.88 1225.09 249.84 1211.16 249.84 1211.16 263.78 1197.24 263.78 1183.33 263.78 1169.41 263.78 1155.49 263.78 1141.57 263.78 1127.65 263.78 1113.73 263.78 1099.81 263.78 1085.89 263.78 1071.97 263.78 1058.05 263.78 1044.13 263.78 1030.21 263.78 1016.29 263.78 1002.37 263.78 988.45 263.78 974.53 263.78 974.53 277.73 960.61 277.73 946.69 277.73 932.77 277.73 918.85 277.73 904.93 277.73 891.01 277.73 877.09 277.73 863.17 277.73 849.25 277.73 835.33 277.73 821.41 277.73 807.49 277.73 793.57 277.73 779.65 277.73 765.73 277.73 751.81 277.73 751.81 291.68 737.89 291.68 723.97 291.68 710.05 291.68 710.05 277.73 696.13 277.73 696.13 291.68 682.21 291.68 682.21 305.63 696.13 305.63 710.05 305.63 723.97 305.63 737.89 305.63 751.81 305.63 765.73 305.63 779.65 305.63 793.57 305.63 807.49 305.63 821.41 305.63 835.33 305.63 849.25 305.63 863.17 305.63 877.09 305.63 891.01 305.63 904.93 305.63 918.85 305.63 932.77 305.63 946.69 305.63 960.61 305.63 974.53 305.63 988.45 305.63 1002.37 305.63 1016.29 305.63 1016.29 291.68 1016.29 277.73 1030.21 277.73 1044.13 277.73 1058.05 277.73 1071.97 277.73 1085.89 277.73 1099.81 277.73 1113.73 277.73 1127.65 277.73 1141.57 277.73 1155.49 277.73 1169.41 277.73 1183.33 277.73 1197.24 277.73 1211.16 277.73 1225.09 277.73 1225.09 291.68 1239.01 291.68 1252.92 291.68 1266.84 291.68 1280.76 291.68 1294.68 291.68 1308.6 291.68 1322.52 291.68 1336.44 291.68 1350.36 291.68 1364.28 291.68 1378.2 291.68 1392.12 291.68 1392.12 277.73 1392.12 263.78 1392.12 249.84 1392.12 235.88 1378.2 235.88"/><polygon class="cls-12" points="1364.28 417.22 1350.36 417.22 1336.44 417.22 1322.52 417.22 1308.6 417.22 1294.68 417.22 1280.76 417.22 1280.76 431.16 1266.84 431.16 1252.92 431.16 1239.01 431.16 1225.09 431.16 1211.16 431.16 1197.24 431.16 1183.33 431.16 1169.41 431.16 1155.49 431.16 1141.57 431.16 1127.65 431.16 1113.73 431.16 1099.81 431.16 1085.89 431.16 1071.97 431.16 1058.05 431.16 1044.13 431.16 1044.13 445.11 1044.13 459.06 1044.13 473.01 1058.05 473.01 1071.97 473.01 1085.89 473.01 1099.81 473.01 1113.73 473.01 1127.65 473.01 1141.57 473.01 1155.49 473.01 1169.41 473.01 1183.33 473.01 1197.24 473.01 1211.16 473.01 1225.09 473.01 1239.01 473.01 1252.92 473.01 1266.84 473.01 1280.76 473.01 1294.68 473.01 1308.6 473.01 1322.52 473.01 1336.44 473.01 1350.36 473.01 1364.28 473.01 1378.2 473.01 1392.12 473.01 1392.12 459.06 1392.12 445.11 1392.12 431.16 1392.12 417.22 1378.2 417.22 1364.28 417.22"/><polygon class="cls-55" points="1364.28 347.47 1350.36 347.47 1350.36 361.42 1336.44 361.42 1322.52 361.42 1308.6 361.42 1294.68 361.42 1280.76 361.42 1266.84 361.42 1252.92 361.42 1252.92 375.37 1266.84 375.37 1266.84 389.32 1252.92 389.32 1252.92 403.26 1239.01 403.26 1239.01 389.32 1225.09 389.32 1225.09 375.37 1211.16 375.37 1197.24 375.37 1197.24 389.32 1183.33 389.32 1183.33 403.26 1169.41 403.26 1155.49 403.26 1155.49 417.22 1141.57 417.22 1127.65 417.22 1113.73 417.22 1099.81 417.22 1085.89 417.22 1085.89 403.26 1071.97 403.26 1058.05 403.26 1058.05 389.32 1044.13 389.32 1044.13 375.37 1030.21 375.37 1030.21 361.42 1016.29 361.42 1002.37 361.42 988.45 361.42 974.53 361.42 960.61 361.42 946.69 361.42 932.77 361.42 918.85 361.42 904.93 361.42 891.01 361.42 877.09 361.42 863.17 361.42 849.25 361.42 835.33 361.42 821.41 361.42 807.49 361.42 793.57 361.42 779.65 361.42 765.73 361.42 765.73 347.47 751.81 347.47 737.89 347.47 723.97 347.47 710.05 347.47 696.13 347.47 682.21 347.47 668.29 347.47 654.37 347.47 640.46 347.47 626.53 347.47 612.62 347.47 598.7 347.47 584.78 347.47 570.86 347.47 570.86 333.53 556.94 333.53 543.02 333.53 529.1 333.53 515.18 333.53 501.26 333.53 487.34 333.53 473.42 333.53 459.5 333.53 445.58 333.53 431.66 333.53 417.74 333.53 403.82 333.53 389.9 333.53 375.98 333.53 362.06 333.53 348.14 333.53 334.22 333.53 320.3 333.53 306.38 333.53 292.46 333.53 278.54 333.53 264.62 333.53 264.62 319.57 250.7 319.57 236.78 319.57 222.86 319.57 208.94 319.57 195.02 319.57 181.1 319.57 167.18 319.57 153.26 319.57 139.34 319.57 125.42 319.57 111.5 319.57 97.58 319.57 83.66 319.57 69.74 319.57 55.82 319.57 41.9 319.57 27.98 319.57 14.06 319.57 0.14 319.57 0.14 333.53 0.14 347.47 0.14 361.42 0.14 375.37 0.14 389.32 0.14 403.26 0.14 417.22 14.06 417.22 27.98 417.22 41.9 417.22 55.82 417.22 69.74 417.22 83.66 417.22 97.58 417.22 97.58 403.26 111.5 403.26 111.5 389.32 111.5 375.37 125.42 375.37 139.34 375.37 153.26 375.37 167.18 375.37 181.1 375.37 195.02 375.37 195.02 361.42 208.94 361.42 208.94 347.47 222.86 347.47 236.78 347.47 250.7 347.47 264.62 347.47 278.54 347.47 292.46 347.47 292.46 361.42 306.38 361.42 306.38 375.37 320.3 375.37 320.3 389.32 334.22 389.32 348.14 389.32 348.14 403.26 362.06 403.26 375.98 403.26 389.9 403.26 403.82 403.26 417.74 403.26 417.74 417.22 431.66 417.22 445.58 417.22 459.5 417.22 473.42 417.22 487.34 417.22 501.26 417.22 515.18 417.22 529.1 417.22 543.02 417.22 556.94 417.22 570.86 417.22 584.78 417.22 598.7 417.22 612.62 417.22 626.53 417.22 626.53 403.26 626.53 389.32 626.53 375.37 640.46 375.37 654.37 375.37 654.37 361.42 668.29 361.42 682.21 361.42 682.21 375.37 696.13 375.37 710.05 375.37 723.97 375.37 723.97 389.32 737.89 389.32 737.89 403.26 737.89 417.22 751.81 417.22 765.73 417.22 779.65 417.22 793.57 417.22 807.49 417.22 821.41 417.22 835.33 417.22 849.25 417.22 863.17 417.22 877.09 417.22 877.09 431.16 891.01 431.16 891.01 417.22 904.93 417.22 904.93 403.26 918.85 403.26 932.77 403.26 946.69 403.26 960.61 403.26 974.53 403.26 974.53 417.22 988.45 417.22 988.45 431.16 1002.37 431.16 1016.29 431.16 1030.21 431.16 1044.13 431.16 1058.05 431.16 1071.97 431.16 1085.89 431.16 1099.81 431.16 1113.73 431.16 1127.65 431.16 1141.57 431.16 1155.49 431.16 1169.41 431.16 1183.33 431.16 1197.24 431.16 1211.16 431.16 1225.09 431.16 1239.01 431.16 1252.92 431.16 1266.84 431.16 1280.76 431.16 1280.76 417.22 1294.68 417.22 1308.6 417.22 1322.52 417.22 1336.44 417.22 1350.36 417.22 1364.28 417.22 1378.2 417.22 1392.12 417.22 1392.12 403.26 1392.12 389.32 1392.12 375.37 1392.12 361.42 1392.12 347.47 1378.2 347.47 1364.28 347.47"/><path class="cls-20" d="M829.29,275.21H690.09V345H815.37V331h41.76V275.21H829.29ZM717.93,303.1h13.92v14H717.93Z" transform="translate(534.99 16.47)"/><rect class="cls-56" x="1252.92" y="375.37" width="13.92" height="13.95"/><rect class="cls-56" x="1252.92" y="319.57" width="13.92" height="13.95"/><rect class="cls-56" x="1239" y="389.32" width="13.92" height="13.95"/><rect class="cls-56" x="1239" y="361.42" width="13.92" height="13.95"/><rect class="cls-56" x="1225.08" y="375.37" width="13.92" height="13.95"/><polygon class="cls-57" points="1197.24 361.42 1183.33 361.42 1169.41 361.42 1155.49 361.42 1141.57 361.42 1127.65 361.42 1113.73 361.42 1099.81 361.42 1085.89 361.42 1071.97 361.42 1058.05 361.42 1044.13 361.42 1030.21 361.42 1030.21 375.37 1044.13 375.37 1058.05 375.37 1071.97 375.37 1085.89 375.37 1099.81 375.37 1113.73 375.37 1127.65 375.37 1141.57 375.37 1155.49 375.37 1169.41 375.37 1183.33 375.37 1197.24 375.37 1211.16 375.37 1211.16 361.42 1197.24 361.42"/><polygon class="cls-54" points="1197.24 347.47 1183.33 347.47 1169.41 347.47 1155.49 347.47 1141.57 347.47 1127.65 347.47 1113.73 347.47 1099.81 347.47 1085.89 347.47 1071.97 347.47 1058.05 347.47 1044.13 347.47 1030.21 347.47 1030.21 361.42 1044.13 361.42 1058.05 361.42 1071.97 361.42 1085.89 361.42 1099.81 361.42 1113.73 361.42 1127.65 361.42 1141.57 361.42 1155.49 361.42 1169.41 361.42 1183.33 361.42 1197.24 361.42 1211.16 361.42 1211.16 375.37 1225.09 375.37 1225.09 361.42 1225.09 347.47 1211.16 347.47 1197.24 347.47"/><polygon class="cls-56" points="1211.16 194.04 1225.09 194.04 1225.09 180.09 1211.16 180.09 1197.24 180.09 1183.33 180.09 1183.33 194.04 1197.24 194.04 1211.16 194.04"/><polygon class="cls-54" points="1169.41 375.37 1155.49 375.37 1141.57 375.37 1127.65 375.37 1113.73 375.37 1099.81 375.37 1085.89 375.37 1071.97 375.37 1058.05 375.37 1044.13 375.37 1044.13 389.32 1058.05 389.32 1071.97 389.32 1085.89 389.32 1099.81 389.32 1113.73 389.32 1127.65 389.32 1141.57 389.32 1155.49 389.32 1169.41 389.32 1183.33 389.32 1197.24 389.32 1197.24 375.37 1183.33 375.37 1169.41 375.37"/><polygon class="cls-57" points="1169.41 249.84 1155.49 249.84 1141.57 249.84 1127.65 249.84 1113.73 249.84 1099.81 249.84 1085.89 249.84 1071.97 249.84 1058.05 249.84 1044.13 249.84 1030.21 249.84 1030.21 263.78 1044.13 263.78 1058.05 263.78 1071.97 263.78 1085.89 263.78 1099.81 263.78 1113.73 263.78 1127.65 263.78 1141.57 263.78 1155.49 263.78 1169.41 263.78 1183.33 263.78 1197.24 263.78 1211.16 263.78 1211.16 249.84 1197.24 249.84 1183.33 249.84 1169.41 249.84"/><polygon class="cls-56" points="1155.49 389.32 1141.57 389.32 1127.65 389.32 1113.73 389.32 1099.81 389.32 1085.89 389.32 1071.97 389.32 1058.05 389.32 1058.05 403.26 1071.97 403.26 1085.89 403.26 1085.89 417.22 1099.81 417.22 1113.73 417.22 1127.65 417.22 1141.57 417.22 1155.49 417.22 1155.49 403.26 1169.41 403.26 1183.33 403.26 1183.33 389.32 1169.41 389.32 1155.49 389.32"/><polygon class="cls-54" points="1155.49 235.88 1141.57 235.88 1127.65 235.88 1113.73 235.88 1099.81 235.88 1085.89 235.88 1071.97 235.88 1058.05 235.88 1044.13 235.88 1044.13 249.84 1058.05 249.84 1071.97 249.84 1085.89 249.84 1099.81 249.84 1113.73 249.84 1127.65 249.84 1141.57 249.84 1155.49 249.84 1169.41 249.84 1183.33 249.84 1197.24 249.84 1197.24 235.88 1183.33 235.88 1169.41 235.88 1155.49 235.88"/><polygon class="cls-5" points="1141.57 668.29 1127.65 668.29 1127.65 654.33 1113.73 654.33 1113.73 640.39 1113.73 626.44 1099.81 626.44 1085.89 626.44 1085.89 640.39 1099.81 640.39 1099.81 654.33 1099.81 668.29 1113.73 668.29 1113.73 682.23 1127.65 682.23 1127.65 696.18 1141.57 696.18 1141.57 710.13 1127.65 710.13 1113.73 710.13 1099.81 710.13 1085.89 710.13 1071.97 710.13 1058.05 710.13 1044.13 710.13 1030.21 710.13 1016.29 710.13 1002.37 710.13 988.45 710.13 974.53 710.13 960.61 710.13 946.69 710.13 932.77 710.13 918.85 710.13 904.93 710.13 891.01 710.13 877.09 710.13 863.17 710.13 849.25 710.13 835.33 710.13 821.41 710.13 807.49 710.13 793.57 710.13 793.57 696.18 779.65 696.18 765.73 696.18 765.73 710.13 751.81 710.13 737.89 710.13 723.97 710.13 723.97 696.18 710.05 696.18 696.13 696.18 696.13 710.13 682.21 710.13 668.29 710.13 668.29 696.18 654.37 696.18 640.46 696.18 626.53 696.18 626.53 710.13 612.62 710.13 598.7 710.13 598.7 696.18 584.78 696.18 570.86 696.18 570.86 710.13 556.94 710.13 543.02 710.13 529.1 710.13 529.1 696.18 515.18 696.18 515.18 710.13 501.26 710.13 501.26 696.18 501.26 682.23 515.18 682.23 515.18 668.29 529.1 668.29 529.1 654.33 543.02 654.33 543.02 640.39 543.02 626.44 529.1 626.44 529.1 640.39 515.18 640.39 515.18 654.33 501.26 654.33 501.26 668.29 487.34 668.29 487.34 682.23 487.34 696.18 487.34 710.13 487.34 724.08 501.26 724.08 515.18 724.08 529.1 724.08 543.02 724.08 556.94 724.08 570.86 724.08 584.78 724.08 598.7 724.08 612.62 724.08 626.53 724.08 640.46 724.08 654.37 724.08 668.29 724.08 682.21 724.08 696.13 724.08 710.05 724.08 723.97 724.08 737.89 724.08 751.81 724.08 765.73 724.08 779.65 724.08 793.57 724.08 807.49 724.08 821.41 724.08 835.33 724.08 849.25 724.08 863.17 724.08 877.09 724.08 891.01 724.08 904.93 724.08 918.85 724.08 932.77 724.08 946.69 724.08 960.61 724.08 974.53 724.08 988.45 724.08 1002.37 724.08 1016.29 724.08 1030.21 724.08 1044.13 724.08 1058.05 724.08 1071.97 724.08 1085.89 724.08 1099.81 724.08 1113.73 724.08 1127.65 724.08 1141.57 724.08 1155.49 724.08 1155.49 710.13 1155.49 696.18 1155.49 682.23 1141.57 682.23 1141.57 668.29"/><polygon class="cls-56" points="1058.05 235.88 1071.97 235.88 1085.89 235.88 1099.81 235.88 1113.73 235.88 1127.65 235.88 1141.57 235.88 1155.49 235.88 1169.41 235.88 1183.33 235.88 1183.33 221.94 1169.41 221.94 1155.49 221.94 1155.49 207.99 1141.57 207.99 1127.65 207.99 1113.73 207.99 1099.81 207.99 1085.89 207.99 1085.89 221.94 1071.97 221.94 1058.05 221.94 1058.05 235.88"/><rect class="cls-58" x="1044.13" y="221.94" width="13.92" height="13.95"/><polygon class="cls-59" points="1058.05 221.94 1071.97 221.94 1071.97 207.99 1058.05 207.99 1044.13 207.99 1044.13 221.94 1058.05 221.94"/><polygon class="cls-5" points="1044.13 431.16 1030.21 431.16 1016.29 431.16 1002.37 431.16 988.45 431.16 988.45 417.22 974.53 417.22 974.53 403.26 960.61 403.26 946.69 403.26 932.77 403.26 918.85 403.26 904.93 403.26 904.93 417.22 891.01 417.22 891.01 431.16 877.09 431.16 863.17 431.16 863.17 445.11 863.17 459.06 863.17 473.01 877.09 473.01 877.09 459.06 877.09 445.11 891.01 445.11 904.93 445.11 904.93 431.16 918.85 431.16 918.85 417.22 932.77 417.22 946.69 417.22 960.61 417.22 960.61 431.16 974.53 431.16 974.53 445.11 988.45 445.11 1002.37 445.11 1016.29 445.11 1030.21 445.11 1030.21 459.06 1044.13 459.06 1044.13 445.11 1044.13 431.16"/><polygon class="cls-59" points="1044.13 249.84 1044.13 235.88 1030.21 235.88 1016.29 235.88 1016.29 249.84 1030.21 249.84 1044.13 249.84"/><polygon class="cls-57" points="1016.29 333.53 1016.29 347.47 1030.21 347.47 1044.13 347.47 1058.05 347.47 1071.97 347.47 1085.89 347.47 1099.81 347.47 1113.73 347.47 1127.65 347.47 1141.57 347.47 1155.49 347.47 1169.41 347.47 1183.33 347.47 1197.24 347.47 1211.16 347.47 1225.09 347.47 1225.09 333.53 1225.09 319.57 1225.09 305.63 1225.09 291.68 1225.09 277.73 1211.16 277.73 1197.24 277.73 1183.33 277.73 1169.41 277.73 1155.49 277.73 1141.57 277.73 1127.65 277.73 1113.73 277.73 1099.81 277.73 1085.89 277.73 1071.97 277.73 1058.05 277.73 1044.13 277.73 1030.21 277.73 1016.29 277.73 1016.29 291.68 1016.29 305.63 1016.29 319.57 1016.29 333.53"/><rect class="cls-58" x="1016.29" y="249.84" width="13.92" height="13.95"/><rect class="cls-59" x="1016.29" y="180.09" width="13.92" height="13.95"/><polygon class="cls-59" points="1002.37 249.84 988.45 249.84 974.53 249.84 960.61 249.84 960.61 263.78 974.53 263.78 988.45 263.78 1002.37 263.78 1016.29 263.78 1016.29 249.84 1002.37 249.84"/><polygon class="cls-58" points="946.69 263.78 932.77 263.78 918.85 263.78 904.93 263.78 891.01 263.78 877.09 263.78 863.17 263.78 849.25 263.78 835.33 263.78 821.41 263.78 807.49 263.78 793.57 263.78 779.65 263.78 765.73 263.78 765.73 277.73 779.65 277.73 793.57 277.73 807.49 277.73 821.41 277.73 835.33 277.73 849.25 277.73 863.17 277.73 877.09 277.73 891.01 277.73 904.93 277.73 918.85 277.73 932.77 277.73 946.69 277.73 960.61 277.73 974.53 277.73 974.53 263.78 960.61 263.78 946.69 263.78"/><polygon class="cls-59" points="960.61 166.15 974.53 166.15 974.53 152.19 960.61 152.19 946.69 152.19 946.69 166.15 960.61 166.15"/><rect class="cls-59" x="918.85" y="138.25" width="13.92" height="13.95"/><rect class="cls-59" x="904.93" y="152.2" width="13.92" height="13.95"/><polygon class="cls-12" points="863.17 445.11 863.17 431.16 877.09 431.16 877.09 417.22 863.17 417.22 849.25 417.22 835.33 417.22 821.41 417.22 807.49 417.22 793.57 417.22 779.65 417.22 765.73 417.22 751.81 417.22 737.89 417.22 737.89 431.16 751.81 431.16 751.81 445.11 751.81 459.06 765.73 459.06 765.73 473.01 779.65 473.01 793.57 473.01 807.49 473.01 821.41 473.01 835.33 473.01 849.25 473.01 863.17 473.01 863.17 459.06 863.17 445.11"/><polygon class="cls-59" points="807.49 207.99 821.41 207.99 821.41 194.04 835.33 194.04 835.33 180.09 821.41 180.09 821.41 166.15 807.49 166.15 807.49 180.09 793.57 180.09 793.57 194.04 779.65 194.04 779.65 207.99 793.57 207.99 807.49 207.99"/><polygon class="cls-5" points="751.81 459.06 751.81 473.01 751.81 486.95 765.73 486.95 765.73 473.01 765.73 459.06 751.81 459.06"/><polygon class="cls-5" points="751.81 431.16 737.89 431.16 737.89 417.22 737.89 403.26 737.89 389.32 723.97 389.32 723.97 375.37 710.05 375.37 696.13 375.37 682.21 375.37 682.21 361.42 668.29 361.42 654.37 361.42 654.37 375.37 668.29 375.37 668.29 389.32 668.29 403.26 682.21 403.26 682.21 389.32 696.13 389.32 710.05 389.32 710.05 403.26 723.97 403.26 723.97 417.22 723.97 431.16 723.97 445.11 737.89 445.11 737.89 459.06 751.81 459.06 751.81 445.11 751.81 431.16"/><polygon class="cls-56" points="696.13 221.94 696.13 235.88 696.13 249.84 696.13 263.78 710.05 263.78 723.97 263.78 737.89 263.78 751.81 263.78 765.73 263.78 779.65 263.78 793.57 263.78 807.49 263.78 821.41 263.78 835.33 263.78 849.25 263.78 863.17 263.78 877.09 263.78 891.01 263.78 904.93 263.78 918.85 263.78 932.77 263.78 946.69 263.78 960.61 263.78 960.61 249.84 974.53 249.84 988.45 249.84 1002.37 249.84 1016.29 249.84 1016.29 235.88 1030.21 235.88 1044.13 235.88 1044.13 221.94 1044.13 207.99 1044.13 194.04 1030.21 194.04 1016.29 194.04 1016.29 180.09 1002.37 180.09 988.45 180.09 988.45 166.15 974.53 166.15 960.61 166.15 946.69 166.15 946.69 152.19 932.77 152.19 918.85 152.19 918.85 166.15 904.93 166.15 904.93 180.09 891.01 180.09 891.01 194.04 877.09 194.04 863.17 194.04 863.17 180.09 849.25 180.09 849.25 166.15 835.33 166.15 821.41 166.15 821.41 180.09 835.33 180.09 835.33 194.04 821.41 194.04 821.41 207.99 807.49 207.99 793.57 207.99 779.65 207.99 765.73 207.99 751.81 207.99 751.81 194.04 737.89 194.04 723.97 194.04 710.05 194.04 710.05 207.99 710.05 221.94 696.13 221.94"/><polygon class="cls-59" points="682.21 235.88 668.29 235.88 668.29 249.84 654.37 249.84 654.37 263.78 668.29 263.78 682.21 263.78 682.21 277.73 682.21 291.68 696.13 291.68 696.13 277.73 710.05 277.73 710.05 291.68 723.97 291.68 737.89 291.68 751.81 291.68 751.81 277.73 765.73 277.73 765.73 263.78 751.81 263.78 737.89 263.78 723.97 263.78 710.05 263.78 696.13 263.78 696.13 249.84 696.13 235.88 696.13 221.94 710.05 221.94 710.05 207.99 696.13 207.99 682.21 207.99 682.21 221.94 682.21 235.88"/><polygon class="cls-20" points="668.29 319.57 654.37 319.57 654.37 333.53 640.46 333.53 640.46 347.47 654.37 347.47 668.29 347.47 682.21 347.47 696.13 347.47 710.05 347.47 723.97 347.47 737.89 347.47 751.81 347.47 765.73 347.47 765.73 361.42 779.65 361.42 793.57 361.42 807.49 361.42 821.41 361.42 835.33 361.42 849.25 361.42 863.17 361.42 877.09 361.42 891.01 361.42 904.93 361.42 918.85 361.42 932.77 361.42 946.69 361.42 960.61 361.42 974.53 361.42 988.45 361.42 1002.37 361.42 1016.29 361.42 1030.21 361.42 1030.21 347.47 1016.29 347.47 1016.29 333.53 1016.29 319.57 1016.29 305.63 1002.37 305.63 988.45 305.63 974.53 305.63 960.61 305.63 946.69 305.63 932.77 305.63 918.85 305.63 904.93 305.63 891.01 305.63 877.09 305.63 863.17 305.63 849.25 305.63 835.33 305.63 821.41 305.63 807.49 305.63 793.57 305.63 779.65 305.63 765.73 305.63 751.81 305.63 737.89 305.63 723.97 305.63 710.05 305.63 696.13 305.63 682.21 305.63 668.29 305.63 668.29 319.57"/><rect class="cls-59" x="668.29" y="291.68" width="13.92" height="13.95"/><rect class="cls-59" x="654.37" y="305.63" width="13.92" height="13.95"/><rect class="cls-54" x="654.37" y="291.68" width="13.92" height="13.95"/><rect class="cls-59" x="654.37" y="207.99" width="13.92" height="13.95"/><rect class="cls-59" x="640.45" y="319.57" width="13.92" height="13.95"/><rect class="cls-59" x="640.45" y="194.04" width="13.92" height="13.95"/><polygon class="cls-5" points="626.53 375.37 626.53 389.32 626.53 403.26 626.53 417.22 626.53 431.16 626.53 445.11 626.53 459.06 626.53 473.01 640.46 473.01 640.46 459.06 640.46 445.11 640.46 431.16 640.46 417.22 640.46 403.26 640.46 389.32 654.37 389.32 654.37 375.37 640.46 375.37 626.53 375.37"/><polygon class="cls-59" points="626.53 333.53 612.62 333.53 598.7 333.53 584.78 333.53 570.86 333.53 570.86 347.47 584.78 347.47 598.7 347.47 612.62 347.47 626.53 347.47 640.46 347.47 640.46 333.53 626.53 333.53"/><rect class="cls-5" x="612.62" y="528.8" width="13.92" height="13.95"/><polygon class="cls-12" points="626.53 445.11 626.53 431.16 626.53 417.22 612.62 417.22 598.7 417.22 584.78 417.22 570.86 417.22 556.94 417.22 543.02 417.22 529.1 417.22 515.18 417.22 501.26 417.22 487.34 417.22 473.42 417.22 459.5 417.22 445.58 417.22 431.66 417.22 431.66 431.16 431.66 445.11 445.58 445.11 445.58 459.06 459.5 459.06 473.42 459.06 487.34 459.06 487.34 473.01 501.26 473.01 515.18 473.01 529.1 473.01 543.02 473.01 556.94 473.01 570.86 473.01 584.78 473.01 598.7 473.01 612.62 473.01 626.53 473.01 626.53 459.06 626.53 445.11"/><polygon class="cls-59" points="612.62 194.04 626.53 194.04 640.46 194.04 640.46 180.09 626.53 180.09 612.62 180.09 598.7 180.09 584.78 180.09 584.78 194.04 598.7 194.04 612.62 194.04"/><rect class="cls-59" x="570.86" y="194.04" width="13.92" height="13.95"/><rect class="cls-59" x="556.94" y="319.57" width="13.92" height="13.95"/><polygon class="cls-56" points="556.94 221.94 543.02 221.94 543.02 235.88 529.1 235.88 515.18 235.88 501.26 235.88 487.34 235.88 487.34 249.84 487.34 263.78 487.34 277.73 501.26 277.73 501.26 291.68 515.18 291.68 529.1 291.68 529.1 305.63 543.02 305.63 556.94 305.63 556.94 319.57 570.86 319.57 570.86 333.53 584.78 333.53 598.7 333.53 612.62 333.53 626.53 333.53 640.46 333.53 640.46 319.57 654.37 319.57 654.37 305.63 654.37 291.68 668.29 291.68 682.21 291.68 682.21 277.73 682.21 263.78 668.29 263.78 654.37 263.78 654.37 249.84 668.29 249.84 668.29 235.88 682.21 235.88 682.21 221.94 682.21 207.99 668.29 207.99 668.29 221.94 654.37 221.94 654.37 207.99 640.46 207.99 640.46 194.04 626.53 194.04 612.62 194.04 598.7 194.04 584.78 194.04 584.78 207.99 570.86 207.99 570.86 221.94 556.94 221.94"/><polygon class="cls-59" points="543.02 305.63 529.1 305.63 529.1 319.57 543.02 319.57 556.94 319.57 556.94 305.63 543.02 305.63"/><polygon class="cls-59" points="515.18 291.68 501.26 291.68 501.26 305.63 515.18 305.63 529.1 305.63 529.1 291.68 515.18 291.68"/><polygon class="cls-5" points="487.34 473.01 487.34 486.95 501.26 486.95 515.18 486.95 515.18 473.01 501.26 473.01 487.34 473.01"/><polygon class="cls-56" points="473.42 459.06 459.5 459.06 445.58 459.06 445.58 445.11 431.66 445.11 431.66 431.16 417.74 431.16 417.74 417.22 403.82 417.22 389.9 417.22 375.98 417.22 362.06 417.22 348.14 417.22 348.14 403.26 334.22 403.26 320.3 403.26 320.3 389.32 306.38 389.32 306.38 375.37 292.46 375.37 292.46 361.42 278.54 361.42 264.62 361.42 250.7 361.42 236.78 361.42 222.86 361.42 208.94 361.42 208.94 375.37 195.02 375.37 181.1 375.37 181.1 389.32 167.18 389.32 167.18 403.26 153.26 403.26 139.34 403.26 125.42 403.26 125.42 417.22 111.5 417.22 111.5 431.16 125.42 431.16 125.42 445.11 111.5 445.11 111.5 459.06 97.58 459.06 97.58 473.01 83.66 473.01 69.74 473.01 55.82 473.01 55.82 486.95 69.74 486.95 83.66 486.95 97.58 486.95 111.5 486.95 125.42 486.95 125.42 473.01 139.34 473.01 153.26 473.01 167.18 473.01 181.1 473.01 195.02 473.01 208.94 473.01 222.86 473.01 236.78 473.01 250.7 473.01 264.62 473.01 278.54 473.01 292.46 473.01 306.38 473.01 320.3 473.01 334.22 473.01 348.14 473.01 362.06 473.01 375.98 473.01 389.9 473.01 403.82 473.01 417.74 473.01 431.66 473.01 445.58 473.01 459.5 473.01 473.42 473.01 487.34 473.01 487.34 459.06 473.42 459.06"/><polygon class="cls-59" points="473.42 277.73 473.42 291.68 487.34 291.68 501.26 291.68 501.26 277.73 487.34 277.73 487.34 263.78 487.34 249.84 487.34 235.88 501.26 235.88 515.18 235.88 529.1 235.88 543.02 235.88 543.02 221.94 556.94 221.94 570.86 221.94 570.86 207.99 556.94 207.99 556.94 194.04 543.02 194.04 529.1 194.04 515.18 194.04 515.18 207.99 501.26 207.99 501.26 221.94 487.34 221.94 473.42 221.94 473.42 235.88 473.42 249.84 473.42 263.78 473.42 277.73"/><rect class="cls-54" x="417.74" y="417.22" width="13.92" height="13.95"/><polygon class="cls-54" points="362.06 417.22 375.98 417.22 389.9 417.22 403.82 417.22 417.74 417.22 417.74 403.26 403.82 403.26 389.9 403.26 375.98 403.26 362.06 403.26 348.14 403.26 348.14 417.22 362.06 417.22"/><polygon class="cls-54" points="334.22 403.26 348.14 403.26 348.14 389.32 334.22 389.32 320.3 389.32 320.3 403.26 334.22 403.26"/><rect class="cls-54" x="306.38" y="375.37" width="13.92" height="13.95"/><rect class="cls-54" x="292.46" y="361.42" width="13.92" height="13.95"/><polygon class="cls-54" points="236.78 361.42 250.7 361.42 264.62 361.42 278.54 361.42 292.46 361.42 292.46 347.47 278.54 347.47 264.62 347.47 250.7 347.47 236.78 347.47 222.86 347.47 208.94 347.47 208.94 361.42 222.86 361.42 236.78 361.42"/><rect class="cls-54" x="195.02" y="361.42" width="13.92" height="13.95"/><polygon class="cls-54" points="139.34 389.32 125.42 389.32 125.42 403.26 139.34 403.26 153.26 403.26 167.18 403.26 167.18 389.32 153.26 389.32 139.34 389.32"/><rect class="cls-54" x="111.5" y="403.26" width="13.92" height="13.95"/><polygon class="cls-59" points="125.42 389.32 139.34 389.32 153.26 389.32 167.18 389.32 181.1 389.32 181.1 375.37 167.18 375.37 153.26 375.37 139.34 375.37 125.42 375.37 111.5 375.37 111.5 389.32 111.5 403.26 125.42 403.26 125.42 389.32"/><polygon class="cls-59" points="97.58 445.11 111.5 445.11 125.42 445.11 125.42 431.16 111.5 431.16 97.58 431.16 97.58 445.11"/><rect class="cls-54" x="97.58" y="417.22" width="13.92" height="13.95"/><rect class="cls-59" x="97.58" y="403.26" width="13.92" height="13.95"/><rect class="cls-59" x="83.66" y="417.22" width="13.92" height="13.95"/><polygon class="cls-12" points="83.66 473.01 97.58 473.01 97.58 459.06 111.5 459.06 111.5 445.11 97.58 445.11 97.58 431.16 83.66 431.16 83.66 417.22 69.74 417.22 55.82 417.22 41.9 417.22 27.98 417.22 14.06 417.22 0.14 417.22 0.14 431.16 0.14 445.11 0.14 459.06 0.14 473.01 14.06 473.01 27.98 473.01 41.9 473.01 55.82 473.01 69.74 473.01 83.66 473.01"/><polygon class="cls-20" points="27.98 319.57 41.9 319.57 55.82 319.57 69.74 319.57 83.66 319.57 97.58 319.57 111.5 319.57 125.42 319.57 139.34 319.57 153.26 319.57 167.18 319.57 181.1 319.57 195.02 319.57 208.94 319.57 222.86 319.57 236.78 319.57 250.7 319.57 264.62 319.57 264.62 333.53 278.54 333.53 292.46 333.53 306.38 333.53 320.3 333.53 334.22 333.53 348.14 333.53 362.06 333.53 375.98 333.53 389.9 333.53 403.82 333.53 417.74 333.53 431.66 333.53 445.58 333.53 459.5 333.53 473.42 333.53 487.34 333.53 501.26 333.53 515.18 333.53 529.1 333.53 543.02 333.53 556.94 333.53 556.94 319.57 543.02 319.57 529.1 319.57 529.1 305.63 515.18 305.63 501.26 305.63 501.26 291.68 487.34 291.68 473.42 291.68 473.42 277.73 459.5 277.73 445.58 277.73 431.66 277.73 417.74 277.73 403.82 277.73 389.9 277.73 375.98 277.73 362.06 277.73 348.14 277.73 334.22 277.73 320.3 277.73 306.38 277.73 292.46 277.73 278.54 277.73 264.62 277.73 250.7 277.73 236.78 277.73 222.86 277.73 208.94 277.73 195.02 277.73 181.1 277.73 167.18 277.73 153.26 277.73 139.34 277.73 125.42 277.73 111.5 277.73 97.58 277.73 83.66 277.73 69.74 277.73 55.82 277.73 41.9 277.73 27.98 277.73 14.06 277.73 0.14 277.73 0.14 291.68 0.14 305.63 0.14 319.57 14.06 319.57 27.98 319.57"/><polygon class="cls-54" points="27.98 277.73 41.9 277.73 55.82 277.73 69.74 277.73 83.66 277.73 97.58 277.73 111.5 277.73 125.42 277.73 139.34 277.73 153.26 277.73 167.18 277.73 181.1 277.73 195.02 277.73 208.94 277.73 222.86 277.73 236.78 277.73 250.7 277.73 264.62 277.73 278.54 277.73 292.46 277.73 306.38 277.73 320.3 277.73 334.22 277.73 348.14 277.73 362.06 277.73 375.98 277.73 389.9 277.73 403.82 277.73 417.74 277.73 431.66 277.73 445.58 277.73 459.5 277.73 473.42 277.73 473.42 263.78 473.42 249.84 459.5 249.84 445.58 249.84 431.66 249.84 417.74 249.84 403.82 249.84 389.9 249.84 375.98 249.84 362.06 249.84 348.14 249.84 348.14 235.88 334.22 235.88 320.3 235.88 320.3 249.84 306.38 249.84 292.46 249.84 278.54 249.84 264.62 249.84 250.7 249.84 236.78 249.84 222.86 249.84 208.94 249.84 195.02 249.84 181.1 249.84 181.1 235.88 167.18 235.88 153.26 235.88 139.34 235.88 125.42 235.88 111.5 235.88 97.58 235.88 83.66 235.88 69.74 235.88 55.82 235.88 55.82 221.94 41.9 221.94 27.98 221.94 27.98 235.88 14.06 235.88 0.14 235.88 0.14 249.84 0.14 263.78 0.14 277.73 14.06 277.73 27.98 277.73"/><rect class="cls-32" x="661.98" y="415.2" width="36.82" height="38.09"/></g></g></g></svg>